G75*
%MOIN*%
%OFA0B0*%
%FSLAX25Y25*%
%IPPOS*%
%LPD*%
%AMOC8*
5,1,8,0,0,1.08239X$1,22.5*
%
%ADD10R,0.04724X0.09449*%
%ADD11R,0.07874X0.04724*%
%ADD12R,0.07600X0.15000*%
%ADD13C,0.07400*%
%ADD14R,0.07087X0.06693*%
%ADD15R,0.07098X0.06299*%
%ADD16R,0.05906X0.05118*%
%ADD17R,0.05118X0.05906*%
%ADD18R,0.08000X0.02600*%
%ADD19R,0.04724X0.03150*%
%ADD20R,0.03150X0.04724*%
%ADD21OC8,0.06600*%
%ADD22C,0.01000*%
%ADD23C,0.03962*%
%ADD24C,0.04000*%
%ADD25C,0.04000*%
%ADD26C,0.02500*%
%ADD27C,0.01600*%
D10*
X0129537Y0047169D03*
X0137412Y0047169D03*
X0145286Y0047169D03*
X0153160Y0047169D03*
X0161034Y0047169D03*
X0168908Y0047169D03*
X0176782Y0047169D03*
X0184656Y0047169D03*
X0184656Y0107799D03*
X0176782Y0107799D03*
X0168908Y0107799D03*
X0161034Y0107799D03*
X0153160Y0107799D03*
X0145286Y0107799D03*
X0137412Y0107799D03*
X0129537Y0107799D03*
D11*
X0123632Y0097169D03*
X0123632Y0089295D03*
X0123632Y0081421D03*
X0123632Y0073547D03*
X0123632Y0065673D03*
X0123632Y0057799D03*
D12*
X0048435Y0049965D03*
X0013002Y0049965D03*
X0013002Y0103114D03*
X0048632Y0102878D03*
D13*
X0040487Y0119569D03*
X0040487Y0137369D03*
X0014887Y0137369D03*
X0014887Y0119569D03*
X0109065Y0083184D03*
X0109065Y0071784D03*
X0074065Y0043184D03*
X0074065Y0031784D03*
X0019765Y0032484D03*
X0008365Y0032484D03*
X0143365Y0032484D03*
X0154765Y0032484D03*
X0183565Y0032484D03*
X0184565Y0022484D03*
X0183565Y0012484D03*
D14*
X0047136Y0032484D03*
X0030994Y0032484D03*
D15*
X0059065Y0033083D03*
X0059065Y0021886D03*
X0059065Y0106886D03*
X0059065Y0118083D03*
D16*
X0164065Y0119138D03*
X0164065Y0125831D03*
X0174065Y0125831D03*
X0174065Y0119138D03*
X0184065Y0118744D03*
X0184065Y0126224D03*
X0119065Y0030831D03*
X0119065Y0024138D03*
X0104065Y0024138D03*
X0104065Y0030831D03*
D17*
X0135719Y0012484D03*
X0142412Y0012484D03*
X0145719Y0022484D03*
X0152412Y0022484D03*
X0112412Y0137484D03*
X0105719Y0137484D03*
X0092412Y0137484D03*
X0085719Y0137484D03*
X0072412Y0137484D03*
X0065719Y0137484D03*
D18*
X0071965Y0089984D03*
X0071965Y0084984D03*
X0071965Y0079984D03*
X0071965Y0074984D03*
X0071965Y0069984D03*
X0071965Y0064984D03*
X0071965Y0059984D03*
X0071965Y0054984D03*
X0096165Y0054984D03*
X0096165Y0059984D03*
X0096165Y0064984D03*
X0096165Y0069984D03*
X0096165Y0074984D03*
X0096165Y0079984D03*
X0096165Y0084984D03*
X0096165Y0089984D03*
D19*
X0104065Y0093941D03*
X0104065Y0101028D03*
X0064065Y0091028D03*
X0056565Y0088528D03*
X0064065Y0083941D03*
X0056565Y0081441D03*
X0059065Y0076028D03*
X0059065Y0068941D03*
D20*
X0055522Y0062484D03*
X0062608Y0062484D03*
D21*
X0079065Y0117484D03*
X0079065Y0127484D03*
X0099065Y0127484D03*
X0099065Y0117484D03*
X0119065Y0117484D03*
X0119065Y0127484D03*
X0159065Y0012484D03*
X0169065Y0012484D03*
D22*
X0188104Y0002484D02*
X0004065Y0002484D01*
X0004065Y0029556D01*
X0004399Y0029097D01*
X0004977Y0028518D01*
X0005640Y0028037D01*
X0006369Y0027665D01*
X0007147Y0027412D01*
X0007865Y0027299D01*
X0007865Y0031984D01*
X0008865Y0031984D01*
X0008865Y0027299D01*
X0009583Y0027412D01*
X0010361Y0027665D01*
X0011090Y0028037D01*
X0011753Y0028518D01*
X0012331Y0029097D01*
X0012812Y0029759D01*
X0013184Y0030488D01*
X0013437Y0031267D01*
X0013551Y0031984D01*
X0008865Y0031984D01*
X0008865Y0032984D01*
X0013551Y0032984D01*
X0013437Y0033702D01*
X0013184Y0034480D01*
X0012812Y0035210D01*
X0012331Y0035872D01*
X0011753Y0036451D01*
X0011090Y0036932D01*
X0010361Y0037303D01*
X0009583Y0037556D01*
X0008865Y0037670D01*
X0008865Y0032984D01*
X0007865Y0032984D01*
X0007865Y0037670D01*
X0007147Y0037556D01*
X0006369Y0037303D01*
X0005640Y0036932D01*
X0004977Y0036451D01*
X0004399Y0035872D01*
X0004065Y0035413D01*
X0004065Y0144217D01*
X0188104Y0144217D01*
X0188104Y0129818D01*
X0187939Y0129984D01*
X0187597Y0130181D01*
X0187215Y0130283D01*
X0184565Y0130283D01*
X0184565Y0126724D01*
X0183565Y0126724D01*
X0183565Y0125724D01*
X0179612Y0125724D01*
X0179612Y0123468D01*
X0179715Y0123086D01*
X0179912Y0122744D01*
X0180191Y0122465D01*
X0180346Y0122376D01*
X0179812Y0121842D01*
X0179812Y0121284D01*
X0178318Y0121284D01*
X0178318Y0122235D01*
X0178069Y0122484D01*
X0178318Y0122733D01*
X0178318Y0128928D01*
X0177556Y0129690D01*
X0170574Y0129690D01*
X0169812Y0128928D01*
X0169812Y0128634D01*
X0168318Y0128634D01*
X0168318Y0128928D01*
X0167556Y0129690D01*
X0160574Y0129690D01*
X0159812Y0128928D01*
X0159812Y0128634D01*
X0140978Y0128634D01*
X0139894Y0128185D01*
X0127244Y0115535D01*
X0126414Y0114705D01*
X0125965Y0113621D01*
X0125965Y0113152D01*
X0125875Y0113062D01*
X0125875Y0108834D01*
X0118978Y0108834D01*
X0117894Y0108385D01*
X0117064Y0107555D01*
X0112664Y0103155D01*
X0112215Y0102071D01*
X0112215Y0100506D01*
X0107727Y0096018D01*
X0107727Y0096054D01*
X0106966Y0096816D01*
X0105305Y0096816D01*
X0105286Y0096835D01*
X0105192Y0096874D01*
X0105115Y0096942D01*
X0104652Y0097098D01*
X0104202Y0097284D01*
X0104100Y0097284D01*
X0104003Y0097317D01*
X0103516Y0097284D01*
X0100278Y0097284D01*
X0099194Y0096835D01*
X0099033Y0096674D01*
X0098094Y0096285D01*
X0097290Y0095481D01*
X0092911Y0099860D01*
X0084116Y0108655D01*
X0084116Y0108655D01*
X0083286Y0109485D01*
X0082202Y0109934D01*
X0063914Y0109934D01*
X0063914Y0110574D01*
X0063153Y0111335D01*
X0054977Y0111335D01*
X0054216Y0110574D01*
X0054216Y0110484D01*
X0053732Y0110484D01*
X0053732Y0110916D01*
X0052970Y0111678D01*
X0044294Y0111678D01*
X0043532Y0110916D01*
X0043532Y0094839D01*
X0044294Y0094078D01*
X0052970Y0094078D01*
X0053732Y0094839D01*
X0053732Y0104584D01*
X0053993Y0104584D01*
X0054094Y0104483D01*
X0054216Y0104433D01*
X0054216Y0103198D01*
X0054977Y0102436D01*
X0063153Y0102436D01*
X0063914Y0103198D01*
X0063914Y0104034D01*
X0080393Y0104034D01*
X0087068Y0097359D01*
X0085164Y0095455D01*
X0084715Y0094371D01*
X0084715Y0034347D01*
X0085164Y0033263D01*
X0085994Y0032433D01*
X0096994Y0021433D01*
X0098078Y0020984D01*
X0099868Y0020984D01*
X0100574Y0020279D01*
X0107556Y0020279D01*
X0108262Y0020984D01*
X0108365Y0020984D01*
X0108365Y0018947D01*
X0108814Y0017863D01*
X0111564Y0015113D01*
X0112394Y0014283D01*
X0113478Y0013834D01*
X0128402Y0013834D01*
X0129486Y0014283D01*
X0130316Y0015113D01*
X0130316Y0015113D01*
X0134537Y0019334D01*
X0141860Y0019334D01*
X0141860Y0018993D01*
X0142621Y0018231D01*
X0148816Y0018231D01*
X0149065Y0018480D01*
X0149314Y0018231D01*
X0155509Y0018231D01*
X0156271Y0018993D01*
X0156271Y0025975D01*
X0155509Y0026737D01*
X0155179Y0026737D01*
X0156044Y0027602D01*
X0157597Y0028245D01*
X0159004Y0029652D01*
X0159765Y0031490D01*
X0159765Y0033479D01*
X0159004Y0035317D01*
X0157597Y0036723D01*
X0156415Y0037213D01*
X0156415Y0038596D01*
X0155865Y0039146D01*
X0155865Y0041145D01*
X0156060Y0041145D01*
X0156822Y0041906D01*
X0156822Y0052432D01*
X0156060Y0053194D01*
X0150259Y0053194D01*
X0149497Y0052432D01*
X0149497Y0041906D01*
X0150259Y0041145D01*
X0151465Y0041145D01*
X0151465Y0037323D01*
X0152015Y0036773D01*
X0152015Y0036757D01*
X0151933Y0036723D01*
X0150526Y0035317D01*
X0149765Y0033479D01*
X0149765Y0031490D01*
X0150526Y0029652D01*
X0151199Y0028979D01*
X0149815Y0027596D01*
X0149815Y0026737D01*
X0149314Y0026737D01*
X0149065Y0026488D01*
X0148816Y0026737D01*
X0142621Y0026737D01*
X0141860Y0025975D01*
X0141860Y0025234D01*
X0132728Y0025234D01*
X0131644Y0024785D01*
X0130814Y0023955D01*
X0126593Y0019734D01*
X0115287Y0019734D01*
X0114265Y0020756D01*
X0114265Y0022871D01*
X0113816Y0023955D01*
X0112986Y0024785D01*
X0111336Y0026435D01*
X0110252Y0026884D01*
X0108318Y0026884D01*
X0108318Y0027235D01*
X0108069Y0027484D01*
X0108318Y0027733D01*
X0108318Y0033928D01*
X0107556Y0034690D01*
X0107032Y0034690D01*
X0121026Y0048684D01*
X0124876Y0048684D01*
X0125675Y0049483D01*
X0125675Y0047669D01*
X0129037Y0047669D01*
X0129037Y0046669D01*
X0125675Y0046669D01*
X0125675Y0042247D01*
X0125778Y0041866D01*
X0125975Y0041524D01*
X0126254Y0041245D01*
X0126596Y0041047D01*
X0126978Y0040945D01*
X0129038Y0040945D01*
X0129038Y0046669D01*
X0130037Y0046669D01*
X0130037Y0040945D01*
X0132097Y0040945D01*
X0132479Y0041047D01*
X0132821Y0041245D01*
X0133100Y0041524D01*
X0133297Y0041866D01*
X0133400Y0042247D01*
X0133400Y0046669D01*
X0130038Y0046669D01*
X0130038Y0047669D01*
X0133400Y0047669D01*
X0133400Y0052091D01*
X0133297Y0052473D01*
X0133100Y0052815D01*
X0132821Y0053094D01*
X0132479Y0053291D01*
X0132097Y0053394D01*
X0130686Y0053394D01*
X0131476Y0054184D01*
X0141754Y0054184D01*
X0142744Y0053194D01*
X0142385Y0053194D01*
X0141623Y0052432D01*
X0141623Y0041906D01*
X0142385Y0041145D01*
X0148186Y0041145D01*
X0148948Y0041906D01*
X0148948Y0052432D01*
X0148186Y0053194D01*
X0147615Y0053194D01*
X0147615Y0054546D01*
X0146326Y0055834D01*
X0143576Y0058584D01*
X0129654Y0058584D01*
X0128869Y0057799D01*
X0128869Y0060700D01*
X0128107Y0061461D01*
X0119156Y0061461D01*
X0118395Y0060700D01*
X0118395Y0054899D01*
X0119156Y0054137D01*
X0124107Y0054137D01*
X0123054Y0053084D01*
X0119204Y0053084D01*
X0117915Y0051796D01*
X0101965Y0035846D01*
X0101965Y0034690D01*
X0100574Y0034690D01*
X0099812Y0033928D01*
X0099812Y0027733D01*
X0100061Y0027484D01*
X0099812Y0027235D01*
X0099812Y0026959D01*
X0090615Y0036156D01*
X0090615Y0092562D01*
X0091240Y0093187D01*
X0091843Y0092584D01*
X0091627Y0092584D01*
X0090865Y0091823D01*
X0090865Y0088146D01*
X0091423Y0087588D01*
X0091244Y0087485D01*
X0090965Y0087205D01*
X0090767Y0086863D01*
X0090665Y0086482D01*
X0090665Y0085134D01*
X0096015Y0085134D01*
X0096015Y0084834D01*
X0090665Y0084834D01*
X0090665Y0083487D01*
X0090767Y0083105D01*
X0090965Y0082763D01*
X0091244Y0082484D01*
X0091423Y0082381D01*
X0090865Y0081823D01*
X0090865Y0078146D01*
X0091527Y0077484D01*
X0090865Y0076823D01*
X0090865Y0073146D01*
X0091527Y0072484D01*
X0090865Y0071823D01*
X0090865Y0068146D01*
X0091527Y0067484D01*
X0090865Y0066823D01*
X0090865Y0063146D01*
X0091527Y0062484D01*
X0090865Y0061823D01*
X0090865Y0058146D01*
X0091527Y0057484D01*
X0090865Y0056823D01*
X0090865Y0053146D01*
X0091627Y0052384D01*
X0100704Y0052384D01*
X0101465Y0053146D01*
X0101465Y0056823D01*
X0100804Y0057484D01*
X0100976Y0057657D01*
X0101196Y0057437D01*
X0102409Y0056934D01*
X0103721Y0056934D01*
X0104934Y0057437D01*
X0105863Y0058365D01*
X0106365Y0059578D01*
X0106365Y0060891D01*
X0105863Y0062104D01*
X0104934Y0063032D01*
X0103721Y0063534D01*
X0102409Y0063534D01*
X0101461Y0063142D01*
X0101465Y0063146D01*
X0101465Y0066823D01*
X0100804Y0067484D01*
X0101465Y0068146D01*
X0101465Y0071823D01*
X0100804Y0072484D01*
X0101465Y0073146D01*
X0101465Y0076823D01*
X0100804Y0077484D01*
X0101154Y0077834D01*
X0104526Y0077834D01*
X0105935Y0079243D01*
X0106233Y0078945D01*
X0108070Y0078184D01*
X0110060Y0078184D01*
X0111897Y0078945D01*
X0113304Y0080352D01*
X0114065Y0082190D01*
X0114065Y0084179D01*
X0113304Y0086017D01*
X0111897Y0087423D01*
X0110060Y0088184D01*
X0108070Y0088184D01*
X0106233Y0087423D01*
X0104826Y0086017D01*
X0104065Y0084179D01*
X0104065Y0083596D01*
X0102704Y0082234D01*
X0101054Y0082234D01*
X0100907Y0082381D01*
X0101086Y0082484D01*
X0101365Y0082763D01*
X0101563Y0083105D01*
X0101665Y0083487D01*
X0101665Y0084834D01*
X0096315Y0084834D01*
X0096315Y0085134D01*
X0101665Y0085134D01*
X0101665Y0086482D01*
X0101563Y0086863D01*
X0101365Y0087205D01*
X0101086Y0087485D01*
X0100907Y0087588D01*
X0101465Y0088146D01*
X0101465Y0091066D01*
X0103297Y0091066D01*
X0103396Y0091053D01*
X0103677Y0090958D01*
X0103904Y0090973D01*
X0104694Y0090183D01*
X0105778Y0089734D01*
X0109152Y0089734D01*
X0110236Y0090183D01*
X0116836Y0096783D01*
X0117666Y0097613D01*
X0118115Y0098697D01*
X0118115Y0100262D01*
X0120787Y0102934D01*
X0125875Y0102934D01*
X0125875Y0102536D01*
X0126637Y0101775D01*
X0132438Y0101775D01*
X0133200Y0102536D01*
X0133200Y0113062D01*
X0133157Y0113105D01*
X0142787Y0122734D01*
X0159812Y0122734D01*
X0159812Y0122733D01*
X0160061Y0122484D01*
X0159812Y0122235D01*
X0159812Y0116040D01*
X0160574Y0115279D01*
X0164259Y0115279D01*
X0165861Y0113677D01*
X0165245Y0113062D01*
X0165245Y0102536D01*
X0166007Y0101775D01*
X0171808Y0101775D01*
X0172570Y0102536D01*
X0172570Y0113062D01*
X0171808Y0113824D01*
X0171265Y0113824D01*
X0171265Y0114496D01*
X0168318Y0117443D01*
X0168318Y0122235D01*
X0168069Y0122484D01*
X0168318Y0122733D01*
X0168318Y0122734D01*
X0169812Y0122734D01*
X0169812Y0122733D01*
X0170061Y0122484D01*
X0169812Y0122235D01*
X0169812Y0116040D01*
X0170574Y0115279D01*
X0177556Y0115279D01*
X0178318Y0116040D01*
X0178318Y0116884D01*
X0179812Y0116884D01*
X0179812Y0115647D01*
X0180574Y0114885D01*
X0182265Y0114885D01*
X0182265Y0113824D01*
X0181755Y0113824D01*
X0180993Y0113062D01*
X0180993Y0102536D01*
X0181755Y0101775D01*
X0187556Y0101775D01*
X0188104Y0102323D01*
X0188104Y0052646D01*
X0187556Y0053194D01*
X0181755Y0053194D01*
X0180993Y0052432D01*
X0180993Y0041906D01*
X0181755Y0041145D01*
X0182815Y0041145D01*
X0182815Y0038678D01*
X0183309Y0037484D01*
X0182570Y0037484D01*
X0182362Y0037398D01*
X0179515Y0040246D01*
X0179515Y0041145D01*
X0179682Y0041145D01*
X0180444Y0041906D01*
X0180444Y0052432D01*
X0179682Y0053194D01*
X0173881Y0053194D01*
X0173119Y0052432D01*
X0173119Y0041906D01*
X0173881Y0041145D01*
X0175115Y0041145D01*
X0175115Y0038423D01*
X0179003Y0034535D01*
X0178565Y0033479D01*
X0178565Y0031490D01*
X0179326Y0029652D01*
X0180733Y0028245D01*
X0182570Y0027484D01*
X0184560Y0027484D01*
X0186397Y0028245D01*
X0187804Y0029652D01*
X0188104Y0030378D01*
X0188104Y0026016D01*
X0187397Y0026723D01*
X0185560Y0027484D01*
X0183570Y0027484D01*
X0181733Y0026723D01*
X0180326Y0025317D01*
X0179565Y0023479D01*
X0179565Y0021490D01*
X0180326Y0019652D01*
X0181733Y0018245D01*
X0183570Y0017484D01*
X0184065Y0017484D01*
X0184065Y0012984D01*
X0183065Y0012984D01*
X0183065Y0011984D01*
X0184065Y0011984D01*
X0184065Y0007299D01*
X0184783Y0007412D01*
X0185561Y0007665D01*
X0186290Y0008037D01*
X0186953Y0008518D01*
X0187531Y0009097D01*
X0188012Y0009759D01*
X0188104Y0009939D01*
X0188104Y0002484D01*
X0004065Y0002484D01*
X0004065Y0003483D02*
X0188104Y0003483D01*
X0188104Y0004481D02*
X0004065Y0004481D01*
X0004065Y0005480D02*
X0188104Y0005480D01*
X0188104Y0006478D02*
X0004065Y0006478D01*
X0004065Y0007477D02*
X0182149Y0007477D01*
X0182347Y0007412D02*
X0183065Y0007299D01*
X0183065Y0011984D01*
X0178379Y0011984D01*
X0178493Y0011267D01*
X0178746Y0010488D01*
X0179118Y0009759D01*
X0179599Y0009097D01*
X0180177Y0008518D01*
X0180840Y0008037D01*
X0181569Y0007665D01*
X0182347Y0007412D01*
X0183065Y0007477D02*
X0184065Y0007477D01*
X0184981Y0007477D02*
X0188104Y0007477D01*
X0188104Y0008475D02*
X0186894Y0008475D01*
X0187805Y0009474D02*
X0188104Y0009474D01*
X0184065Y0009474D02*
X0183065Y0009474D01*
X0183065Y0010472D02*
X0184065Y0010472D01*
X0184065Y0011471D02*
X0183065Y0011471D01*
X0183065Y0012469D02*
X0173665Y0012469D01*
X0173665Y0011471D02*
X0178461Y0011471D01*
X0178754Y0010472D02*
X0173559Y0010472D01*
X0173665Y0010579D02*
X0170970Y0007884D01*
X0167160Y0007884D01*
X0164465Y0010579D01*
X0164465Y0014390D01*
X0167160Y0017084D01*
X0170970Y0017084D01*
X0173665Y0014390D01*
X0173665Y0010579D01*
X0172560Y0009474D02*
X0179325Y0009474D01*
X0180236Y0008475D02*
X0171562Y0008475D01*
X0166569Y0008475D02*
X0161562Y0008475D01*
X0160970Y0007884D02*
X0163665Y0010579D01*
X0163665Y0014390D01*
X0160970Y0017084D01*
X0157160Y0017084D01*
X0155210Y0015134D01*
X0152754Y0015134D01*
X0152204Y0014584D01*
X0146271Y0014584D01*
X0146271Y0015975D01*
X0145509Y0016737D01*
X0139314Y0016737D01*
X0139206Y0016629D01*
X0139199Y0016637D01*
X0138857Y0016835D01*
X0138475Y0016937D01*
X0136219Y0016937D01*
X0136219Y0012984D01*
X0135219Y0012984D01*
X0135219Y0016937D01*
X0132962Y0016937D01*
X0132581Y0016835D01*
X0132239Y0016637D01*
X0131959Y0016358D01*
X0131762Y0016016D01*
X0131660Y0015634D01*
X0131660Y0012984D01*
X0135219Y0012984D01*
X0135219Y0011984D01*
X0136219Y0011984D01*
X0136219Y0008031D01*
X0138475Y0008031D01*
X0138857Y0008134D01*
X0139199Y0008331D01*
X0139206Y0008339D01*
X0139314Y0008231D01*
X0145509Y0008231D01*
X0146271Y0008993D01*
X0146271Y0010184D01*
X0154026Y0010184D01*
X0154465Y0010623D01*
X0154465Y0010579D01*
X0157160Y0007884D01*
X0160970Y0007884D01*
X0162560Y0009474D02*
X0165570Y0009474D01*
X0164572Y0010472D02*
X0163559Y0010472D01*
X0163665Y0011471D02*
X0164465Y0011471D01*
X0164465Y0012469D02*
X0163665Y0012469D01*
X0163665Y0013468D02*
X0164465Y0013468D01*
X0164542Y0014466D02*
X0163588Y0014466D01*
X0162590Y0015465D02*
X0165540Y0015465D01*
X0166539Y0016463D02*
X0161591Y0016463D01*
X0156539Y0016463D02*
X0145783Y0016463D01*
X0146271Y0015465D02*
X0155540Y0015465D01*
X0155315Y0012934D02*
X0156415Y0011834D01*
X0158065Y0011834D01*
X0158615Y0012384D01*
X0159065Y0012484D01*
X0155315Y0012934D02*
X0153665Y0012934D01*
X0153115Y0012384D01*
X0142665Y0012384D01*
X0142412Y0012484D01*
X0146271Y0009474D02*
X0155570Y0009474D01*
X0154572Y0010472D02*
X0154314Y0010472D01*
X0156569Y0008475D02*
X0145753Y0008475D01*
X0136219Y0008475D02*
X0135219Y0008475D01*
X0135219Y0008031D02*
X0135219Y0011984D01*
X0131660Y0011984D01*
X0131660Y0009334D01*
X0131762Y0008953D01*
X0131959Y0008610D01*
X0132239Y0008331D01*
X0132581Y0008134D01*
X0132962Y0008031D01*
X0135219Y0008031D01*
X0135219Y0009474D02*
X0136219Y0009474D01*
X0136219Y0010472D02*
X0135219Y0010472D01*
X0135219Y0011471D02*
X0136219Y0011471D01*
X0135219Y0012469D02*
X0004065Y0012469D01*
X0004065Y0011471D02*
X0131660Y0011471D01*
X0131660Y0010472D02*
X0004065Y0010472D01*
X0004065Y0009474D02*
X0131660Y0009474D01*
X0132094Y0008475D02*
X0004065Y0008475D01*
X0004065Y0013468D02*
X0131660Y0013468D01*
X0131660Y0014466D02*
X0129669Y0014466D01*
X0130668Y0015465D02*
X0131660Y0015465D01*
X0131666Y0016463D02*
X0132065Y0016463D01*
X0132665Y0017462D02*
X0182057Y0017462D01*
X0182347Y0017556D02*
X0181569Y0017303D01*
X0180840Y0016932D01*
X0180177Y0016451D01*
X0179599Y0015872D01*
X0179118Y0015210D01*
X0178746Y0014480D01*
X0178493Y0013702D01*
X0178379Y0012984D01*
X0183065Y0012984D01*
X0183065Y0017670D01*
X0182347Y0017556D01*
X0183065Y0017462D02*
X0184065Y0017462D01*
X0184065Y0016463D02*
X0183065Y0016463D01*
X0183065Y0015465D02*
X0184065Y0015465D01*
X0184065Y0014466D02*
X0183065Y0014466D01*
X0183065Y0013468D02*
X0184065Y0013468D01*
X0180195Y0016463D02*
X0171591Y0016463D01*
X0172590Y0015465D02*
X0179303Y0015465D01*
X0178741Y0014466D02*
X0173588Y0014466D01*
X0173665Y0013468D02*
X0178456Y0013468D01*
X0181518Y0018460D02*
X0155738Y0018460D01*
X0156271Y0019459D02*
X0180519Y0019459D01*
X0179993Y0020457D02*
X0156271Y0020457D01*
X0156271Y0021456D02*
X0179579Y0021456D01*
X0179565Y0022454D02*
X0156271Y0022454D01*
X0156271Y0023453D02*
X0179565Y0023453D01*
X0179968Y0024452D02*
X0156271Y0024452D01*
X0156271Y0025450D02*
X0180460Y0025450D01*
X0181458Y0026449D02*
X0155798Y0026449D01*
X0155889Y0027447D02*
X0183481Y0027447D01*
X0185649Y0027447D02*
X0188104Y0027447D01*
X0188104Y0026449D02*
X0187672Y0026449D01*
X0188104Y0028446D02*
X0186597Y0028446D01*
X0187596Y0029444D02*
X0188104Y0029444D01*
X0183915Y0032734D02*
X0183565Y0032484D01*
X0183915Y0032734D02*
X0177315Y0039334D01*
X0177315Y0047034D01*
X0176782Y0047169D01*
X0180444Y0047417D02*
X0180993Y0047417D01*
X0180993Y0046419D02*
X0180444Y0046419D01*
X0180444Y0045420D02*
X0180993Y0045420D01*
X0180993Y0044422D02*
X0180444Y0044422D01*
X0180444Y0043423D02*
X0180993Y0043423D01*
X0180993Y0042425D02*
X0180444Y0042425D01*
X0179964Y0041426D02*
X0181474Y0041426D01*
X0182815Y0040428D02*
X0179515Y0040428D01*
X0180331Y0039429D02*
X0182815Y0039429D01*
X0182917Y0038431D02*
X0181330Y0038431D01*
X0182328Y0037432D02*
X0182445Y0037432D01*
X0185015Y0040434D02*
X0186115Y0039334D01*
X0185015Y0040434D02*
X0185015Y0047034D01*
X0184656Y0047169D01*
X0180993Y0048416D02*
X0180444Y0048416D01*
X0180444Y0049414D02*
X0180993Y0049414D01*
X0180993Y0050413D02*
X0180444Y0050413D01*
X0180444Y0051411D02*
X0180993Y0051411D01*
X0180993Y0052410D02*
X0180444Y0052410D01*
X0188104Y0053408D02*
X0163534Y0053408D01*
X0163534Y0053194D02*
X0163534Y0062824D01*
X0164327Y0063618D01*
X0164826Y0064824D01*
X0164826Y0066129D01*
X0164327Y0067335D01*
X0163404Y0068258D01*
X0162198Y0068757D01*
X0160893Y0068757D01*
X0159687Y0068258D01*
X0158764Y0067335D01*
X0158264Y0066129D01*
X0158264Y0064824D01*
X0158534Y0064174D01*
X0158534Y0053194D01*
X0158133Y0053194D01*
X0157371Y0052432D01*
X0157371Y0041906D01*
X0158133Y0041145D01*
X0163934Y0041145D01*
X0164696Y0041906D01*
X0164696Y0052432D01*
X0163934Y0053194D01*
X0163534Y0053194D01*
X0163534Y0054407D02*
X0188104Y0054407D01*
X0188104Y0055405D02*
X0163534Y0055405D01*
X0163534Y0056404D02*
X0188104Y0056404D01*
X0188104Y0057402D02*
X0163534Y0057402D01*
X0163534Y0058401D02*
X0188104Y0058401D01*
X0188104Y0059399D02*
X0163534Y0059399D01*
X0163534Y0060398D02*
X0188104Y0060398D01*
X0188104Y0061396D02*
X0163534Y0061396D01*
X0163534Y0062395D02*
X0188104Y0062395D01*
X0188104Y0063393D02*
X0164103Y0063393D01*
X0164648Y0064392D02*
X0188104Y0064392D01*
X0188104Y0065390D02*
X0164826Y0065390D01*
X0164719Y0066389D02*
X0188104Y0066389D01*
X0188104Y0067387D02*
X0164274Y0067387D01*
X0163095Y0068386D02*
X0188104Y0068386D01*
X0188104Y0069385D02*
X0113678Y0069385D01*
X0113512Y0069059D02*
X0113884Y0069788D01*
X0114137Y0070567D01*
X0114251Y0071284D01*
X0109565Y0071284D01*
X0109565Y0066599D01*
X0110283Y0066712D01*
X0111061Y0066965D01*
X0111790Y0067337D01*
X0112453Y0067818D01*
X0113031Y0068397D01*
X0113512Y0069059D01*
X0113021Y0068386D02*
X0118395Y0068386D01*
X0118395Y0068574D02*
X0118395Y0062773D01*
X0119156Y0062011D01*
X0128107Y0062011D01*
X0128869Y0062773D01*
X0128869Y0068574D01*
X0128107Y0069335D01*
X0119156Y0069335D01*
X0118395Y0068574D01*
X0118395Y0067387D02*
X0111860Y0067387D01*
X0109565Y0067387D02*
X0108565Y0067387D01*
X0108565Y0066599D02*
X0108565Y0071284D01*
X0109565Y0071284D01*
X0109565Y0072284D01*
X0114251Y0072284D01*
X0114137Y0073002D01*
X0113884Y0073780D01*
X0113512Y0074510D01*
X0113031Y0075172D01*
X0112453Y0075751D01*
X0111790Y0076232D01*
X0111061Y0076603D01*
X0110283Y0076856D01*
X0109565Y0076970D01*
X0109565Y0072284D01*
X0108565Y0072284D01*
X0108565Y0071284D01*
X0103879Y0071284D01*
X0103993Y0070567D01*
X0104246Y0069788D01*
X0104618Y0069059D01*
X0105099Y0068397D01*
X0105677Y0067818D01*
X0106340Y0067337D01*
X0107069Y0066965D01*
X0107847Y0066712D01*
X0108565Y0066599D01*
X0108565Y0068386D02*
X0109565Y0068386D01*
X0109565Y0069385D02*
X0108565Y0069385D01*
X0108565Y0070383D02*
X0109565Y0070383D01*
X0109565Y0071382D02*
X0118395Y0071382D01*
X0118395Y0070647D02*
X0119156Y0069885D01*
X0128107Y0069885D01*
X0128869Y0070647D01*
X0128869Y0076448D01*
X0128107Y0077209D01*
X0119156Y0077209D01*
X0118395Y0076448D01*
X0118395Y0070647D01*
X0118659Y0070383D02*
X0114077Y0070383D01*
X0114235Y0072380D02*
X0118395Y0072380D01*
X0118395Y0073379D02*
X0114015Y0073379D01*
X0113580Y0074377D02*
X0118395Y0074377D01*
X0118395Y0075376D02*
X0112828Y0075376D01*
X0111511Y0076374D02*
X0118395Y0076374D01*
X0119156Y0077759D02*
X0128107Y0077759D01*
X0128869Y0078521D01*
X0128869Y0084322D01*
X0128107Y0085083D01*
X0119156Y0085083D01*
X0118395Y0084322D01*
X0118395Y0078521D01*
X0119156Y0077759D01*
X0118544Y0078371D02*
X0110511Y0078371D01*
X0112321Y0079370D02*
X0118395Y0079370D01*
X0118395Y0080368D02*
X0113311Y0080368D01*
X0113724Y0081367D02*
X0118395Y0081367D01*
X0118395Y0082365D02*
X0114065Y0082365D01*
X0114065Y0083364D02*
X0118395Y0083364D01*
X0118435Y0084362D02*
X0113989Y0084362D01*
X0113576Y0085361D02*
X0188104Y0085361D01*
X0188104Y0086359D02*
X0128834Y0086359D01*
X0128869Y0086395D02*
X0128107Y0085633D01*
X0119156Y0085633D01*
X0118395Y0086395D01*
X0118395Y0092196D01*
X0119156Y0092957D01*
X0128107Y0092957D01*
X0128869Y0092196D01*
X0128869Y0086395D01*
X0128869Y0087358D02*
X0188104Y0087358D01*
X0188104Y0088356D02*
X0128869Y0088356D01*
X0128869Y0089355D02*
X0188104Y0089355D01*
X0188104Y0090353D02*
X0128869Y0090353D01*
X0128869Y0091352D02*
X0188104Y0091352D01*
X0188104Y0092350D02*
X0128715Y0092350D01*
X0128107Y0093507D02*
X0128869Y0094269D01*
X0128869Y0100070D01*
X0128107Y0100831D01*
X0119156Y0100831D01*
X0118395Y0100070D01*
X0118395Y0094269D01*
X0119156Y0093507D01*
X0128107Y0093507D01*
X0128869Y0094347D02*
X0130285Y0094347D01*
X0129967Y0094665D02*
X0130896Y0093737D01*
X0132109Y0093234D01*
X0133421Y0093234D01*
X0134634Y0093737D01*
X0135563Y0094665D01*
X0136065Y0095878D01*
X0136065Y0096723D01*
X0139365Y0100023D01*
X0139365Y0101775D01*
X0140312Y0101775D01*
X0141074Y0102536D01*
X0141074Y0113062D01*
X0140312Y0113824D01*
X0134511Y0113824D01*
X0133749Y0113062D01*
X0133749Y0102536D01*
X0134511Y0101775D01*
X0134894Y0101775D01*
X0132954Y0099834D01*
X0132109Y0099834D01*
X0130896Y0099332D01*
X0129967Y0098404D01*
X0129465Y0097191D01*
X0129465Y0095878D01*
X0129967Y0094665D01*
X0129685Y0095346D02*
X0128869Y0095346D01*
X0128869Y0096344D02*
X0129465Y0096344D01*
X0129528Y0097343D02*
X0128869Y0097343D01*
X0128869Y0098341D02*
X0129942Y0098341D01*
X0130915Y0099340D02*
X0128869Y0099340D01*
X0128601Y0100338D02*
X0133458Y0100338D01*
X0134456Y0101337D02*
X0119190Y0101337D01*
X0118663Y0100338D02*
X0118191Y0100338D01*
X0118115Y0099340D02*
X0118395Y0099340D01*
X0118395Y0098341D02*
X0117968Y0098341D01*
X0118395Y0097343D02*
X0117396Y0097343D01*
X0116397Y0096344D02*
X0118395Y0096344D01*
X0118395Y0095346D02*
X0115399Y0095346D01*
X0114400Y0094347D02*
X0118395Y0094347D01*
X0118549Y0092350D02*
X0112403Y0092350D01*
X0111404Y0091352D02*
X0118395Y0091352D01*
X0118395Y0090353D02*
X0110406Y0090353D01*
X0111963Y0087358D02*
X0118395Y0087358D01*
X0118395Y0088356D02*
X0101465Y0088356D01*
X0101465Y0089355D02*
X0118395Y0089355D01*
X0118430Y0086359D02*
X0112961Y0086359D01*
X0109065Y0083184D02*
X0108565Y0082784D01*
X0106365Y0082784D01*
X0103615Y0080034D01*
X0096465Y0080034D01*
X0096165Y0079984D01*
X0091408Y0082365D02*
X0090615Y0082365D01*
X0090615Y0081367D02*
X0090865Y0081367D01*
X0090865Y0080368D02*
X0090615Y0080368D01*
X0090615Y0079370D02*
X0090865Y0079370D01*
X0090865Y0078371D02*
X0090615Y0078371D01*
X0090615Y0077373D02*
X0091415Y0077373D01*
X0090865Y0076374D02*
X0090615Y0076374D01*
X0090615Y0075376D02*
X0090865Y0075376D01*
X0090865Y0074377D02*
X0090615Y0074377D01*
X0090615Y0073379D02*
X0090865Y0073379D01*
X0090615Y0072380D02*
X0091422Y0072380D01*
X0090865Y0071382D02*
X0090615Y0071382D01*
X0090615Y0070383D02*
X0090865Y0070383D01*
X0090865Y0069385D02*
X0090615Y0069385D01*
X0090615Y0068386D02*
X0090865Y0068386D01*
X0090615Y0067387D02*
X0091430Y0067387D01*
X0090865Y0066389D02*
X0090615Y0066389D01*
X0090615Y0065390D02*
X0090865Y0065390D01*
X0090865Y0064392D02*
X0090615Y0064392D01*
X0090615Y0063393D02*
X0090865Y0063393D01*
X0090615Y0062395D02*
X0091437Y0062395D01*
X0090865Y0061396D02*
X0090615Y0061396D01*
X0090615Y0060398D02*
X0090865Y0060398D01*
X0090865Y0059399D02*
X0090615Y0059399D01*
X0090615Y0058401D02*
X0090865Y0058401D01*
X0090615Y0057402D02*
X0091445Y0057402D01*
X0090865Y0056404D02*
X0090615Y0056404D01*
X0090615Y0055405D02*
X0090865Y0055405D01*
X0090865Y0054407D02*
X0090615Y0054407D01*
X0090615Y0053408D02*
X0090865Y0053408D01*
X0090615Y0052410D02*
X0091601Y0052410D01*
X0090615Y0051411D02*
X0117531Y0051411D01*
X0116532Y0050413D02*
X0090615Y0050413D01*
X0090615Y0049414D02*
X0115534Y0049414D01*
X0114535Y0048416D02*
X0090615Y0048416D01*
X0090615Y0047417D02*
X0113537Y0047417D01*
X0112538Y0046419D02*
X0090615Y0046419D01*
X0090615Y0045420D02*
X0111540Y0045420D01*
X0110541Y0044422D02*
X0090615Y0044422D01*
X0090615Y0043423D02*
X0109543Y0043423D01*
X0108544Y0042425D02*
X0090615Y0042425D01*
X0090615Y0041426D02*
X0107546Y0041426D01*
X0106547Y0040428D02*
X0090615Y0040428D01*
X0090615Y0039429D02*
X0105549Y0039429D01*
X0104550Y0038431D02*
X0090615Y0038431D01*
X0090615Y0037432D02*
X0103552Y0037432D01*
X0102553Y0036434D02*
X0090615Y0036434D01*
X0091336Y0035435D02*
X0101965Y0035435D01*
X0100321Y0034437D02*
X0092335Y0034437D01*
X0093333Y0033438D02*
X0099812Y0033438D01*
X0099812Y0032440D02*
X0094332Y0032440D01*
X0095330Y0031441D02*
X0099812Y0031441D01*
X0099812Y0030443D02*
X0096329Y0030443D01*
X0097327Y0029444D02*
X0099812Y0029444D01*
X0099812Y0028446D02*
X0098326Y0028446D01*
X0099324Y0027447D02*
X0100024Y0027447D01*
X0104065Y0030831D02*
X0104165Y0031084D01*
X0104165Y0034934D01*
X0120115Y0050884D01*
X0123965Y0050884D01*
X0126715Y0053634D01*
X0127815Y0053634D01*
X0130565Y0056384D01*
X0142665Y0056384D01*
X0145415Y0053634D01*
X0145415Y0047584D01*
X0145286Y0047169D01*
X0148948Y0047417D02*
X0149497Y0047417D01*
X0149497Y0046419D02*
X0148948Y0046419D01*
X0148948Y0045420D02*
X0149497Y0045420D01*
X0149497Y0044422D02*
X0148948Y0044422D01*
X0148948Y0043423D02*
X0149497Y0043423D01*
X0149497Y0042425D02*
X0148948Y0042425D01*
X0148468Y0041426D02*
X0149978Y0041426D01*
X0151465Y0040428D02*
X0139915Y0040428D01*
X0139915Y0040073D02*
X0139915Y0041145D01*
X0140312Y0041145D01*
X0141074Y0041906D01*
X0141074Y0052432D01*
X0140312Y0053194D01*
X0134511Y0053194D01*
X0133749Y0052432D01*
X0133749Y0041906D01*
X0134511Y0041145D01*
X0134764Y0041145D01*
X0126904Y0033284D01*
X0123318Y0033284D01*
X0123318Y0033928D01*
X0122556Y0034690D01*
X0115574Y0034690D01*
X0114812Y0033928D01*
X0114812Y0027733D01*
X0114920Y0027626D01*
X0114912Y0027618D01*
X0114715Y0027276D01*
X0114612Y0026894D01*
X0114612Y0024638D01*
X0118565Y0024638D01*
X0118565Y0023638D01*
X0114612Y0023638D01*
X0114612Y0021381D01*
X0114715Y0021000D01*
X0114912Y0020658D01*
X0115191Y0020378D01*
X0115533Y0020181D01*
X0115915Y0020079D01*
X0118565Y0020079D01*
X0118565Y0023638D01*
X0119565Y0023638D01*
X0119565Y0024638D01*
X0123518Y0024638D01*
X0123518Y0026894D01*
X0123416Y0027276D01*
X0123218Y0027618D01*
X0123210Y0027626D01*
X0123318Y0027733D01*
X0123318Y0028884D01*
X0128726Y0028884D01*
X0138626Y0038784D01*
X0139915Y0040073D01*
X0139271Y0039429D02*
X0151465Y0039429D01*
X0151465Y0038431D02*
X0138273Y0038431D01*
X0137274Y0037432D02*
X0141766Y0037432D01*
X0142147Y0037556D02*
X0141369Y0037303D01*
X0140640Y0036932D01*
X0139977Y0036451D01*
X0139399Y0035872D01*
X0138918Y0035210D01*
X0138546Y0034480D01*
X0138293Y0033702D01*
X0138179Y0032984D01*
X0142865Y0032984D01*
X0142865Y0031984D01*
X0143865Y0031984D01*
X0143865Y0027299D01*
X0144583Y0027412D01*
X0145361Y0027665D01*
X0146090Y0028037D01*
X0146753Y0028518D01*
X0147331Y0029097D01*
X0147812Y0029759D01*
X0148184Y0030488D01*
X0148437Y0031267D01*
X0148551Y0031984D01*
X0143865Y0031984D01*
X0143865Y0032984D01*
X0148551Y0032984D01*
X0148437Y0033702D01*
X0148184Y0034480D01*
X0147812Y0035210D01*
X0147331Y0035872D01*
X0146753Y0036451D01*
X0146090Y0036932D01*
X0145361Y0037303D01*
X0144583Y0037556D01*
X0143865Y0037670D01*
X0143865Y0032984D01*
X0142865Y0032984D01*
X0142865Y0037670D01*
X0142147Y0037556D01*
X0142865Y0037432D02*
X0143865Y0037432D01*
X0143865Y0036434D02*
X0142865Y0036434D01*
X0142865Y0035435D02*
X0143865Y0035435D01*
X0143865Y0034437D02*
X0142865Y0034437D01*
X0142865Y0033438D02*
X0143865Y0033438D01*
X0143865Y0032440D02*
X0149765Y0032440D01*
X0149765Y0033438D02*
X0148479Y0033438D01*
X0148198Y0034437D02*
X0150162Y0034437D01*
X0150645Y0035435D02*
X0147649Y0035435D01*
X0146770Y0036434D02*
X0151643Y0036434D01*
X0151465Y0037432D02*
X0144965Y0037432D01*
X0139961Y0036434D02*
X0136276Y0036434D01*
X0135277Y0035435D02*
X0139081Y0035435D01*
X0138532Y0034437D02*
X0134279Y0034437D01*
X0133280Y0033438D02*
X0138251Y0033438D01*
X0138179Y0031984D02*
X0138293Y0031267D01*
X0138546Y0030488D01*
X0138918Y0029759D01*
X0139399Y0029097D01*
X0139977Y0028518D01*
X0140640Y0028037D01*
X0141369Y0027665D01*
X0142147Y0027412D01*
X0142865Y0027299D01*
X0142865Y0031984D01*
X0138179Y0031984D01*
X0138265Y0031441D02*
X0131283Y0031441D01*
X0130285Y0030443D02*
X0138569Y0030443D01*
X0139146Y0029444D02*
X0129286Y0029444D01*
X0127815Y0031084D02*
X0137715Y0040984D01*
X0137715Y0047034D01*
X0137412Y0047169D01*
X0133749Y0047417D02*
X0130038Y0047417D01*
X0130037Y0046419D02*
X0129038Y0046419D01*
X0129037Y0047417D02*
X0119759Y0047417D01*
X0118761Y0046419D02*
X0125675Y0046419D01*
X0125675Y0045420D02*
X0117762Y0045420D01*
X0116764Y0044422D02*
X0125675Y0044422D01*
X0125675Y0043423D02*
X0115765Y0043423D01*
X0114767Y0042425D02*
X0125675Y0042425D01*
X0126073Y0041426D02*
X0113768Y0041426D01*
X0112770Y0040428D02*
X0134047Y0040428D01*
X0134230Y0041426D02*
X0133002Y0041426D01*
X0133400Y0042425D02*
X0133749Y0042425D01*
X0133749Y0043423D02*
X0133400Y0043423D01*
X0133400Y0044422D02*
X0133749Y0044422D01*
X0133749Y0045420D02*
X0133400Y0045420D01*
X0133400Y0046419D02*
X0133749Y0046419D01*
X0133749Y0048416D02*
X0133400Y0048416D01*
X0133400Y0049414D02*
X0133749Y0049414D01*
X0133749Y0050413D02*
X0133400Y0050413D01*
X0133400Y0051411D02*
X0133749Y0051411D01*
X0133749Y0052410D02*
X0133314Y0052410D01*
X0130700Y0053408D02*
X0142530Y0053408D01*
X0141623Y0052410D02*
X0141074Y0052410D01*
X0141074Y0051411D02*
X0141623Y0051411D01*
X0141623Y0050413D02*
X0141074Y0050413D01*
X0141074Y0049414D02*
X0141623Y0049414D01*
X0141623Y0048416D02*
X0141074Y0048416D01*
X0141074Y0047417D02*
X0141623Y0047417D01*
X0141623Y0046419D02*
X0141074Y0046419D01*
X0141074Y0045420D02*
X0141623Y0045420D01*
X0141623Y0044422D02*
X0141074Y0044422D01*
X0141074Y0043423D02*
X0141623Y0043423D01*
X0141623Y0042425D02*
X0141074Y0042425D01*
X0140594Y0041426D02*
X0142104Y0041426D01*
X0133049Y0039429D02*
X0111771Y0039429D01*
X0110773Y0038431D02*
X0132050Y0038431D01*
X0131052Y0037432D02*
X0109774Y0037432D01*
X0108776Y0036434D02*
X0130053Y0036434D01*
X0129055Y0035435D02*
X0107777Y0035435D01*
X0107809Y0034437D02*
X0115321Y0034437D01*
X0114812Y0033438D02*
X0108318Y0033438D01*
X0108318Y0032440D02*
X0114812Y0032440D01*
X0114812Y0031441D02*
X0108318Y0031441D01*
X0108318Y0030443D02*
X0114812Y0030443D01*
X0114812Y0029444D02*
X0108318Y0029444D01*
X0108318Y0028446D02*
X0114812Y0028446D01*
X0114813Y0027447D02*
X0108106Y0027447D01*
X0111304Y0026449D02*
X0114612Y0026449D01*
X0114612Y0025450D02*
X0112321Y0025450D01*
X0113320Y0024452D02*
X0118565Y0024452D01*
X0118565Y0023453D02*
X0119565Y0023453D01*
X0119565Y0023638D02*
X0119565Y0020079D01*
X0122215Y0020079D01*
X0122597Y0020181D01*
X0122939Y0020378D01*
X0123218Y0020658D01*
X0123416Y0021000D01*
X0123518Y0021381D01*
X0123518Y0023638D01*
X0119565Y0023638D01*
X0119565Y0024452D02*
X0131310Y0024452D01*
X0130814Y0023955D02*
X0130814Y0023955D01*
X0130312Y0023453D02*
X0123518Y0023453D01*
X0123518Y0022454D02*
X0129313Y0022454D01*
X0128315Y0021456D02*
X0123518Y0021456D01*
X0123018Y0020457D02*
X0127316Y0020457D01*
X0133663Y0018460D02*
X0142392Y0018460D01*
X0136219Y0016463D02*
X0135219Y0016463D01*
X0135219Y0015465D02*
X0136219Y0015465D01*
X0136219Y0014466D02*
X0135219Y0014466D01*
X0135219Y0013468D02*
X0136219Y0013468D01*
X0149045Y0018460D02*
X0149085Y0018460D01*
X0152412Y0022484D02*
X0152015Y0022834D01*
X0152015Y0026684D01*
X0154215Y0028884D01*
X0154215Y0031634D01*
X0154765Y0032184D01*
X0154765Y0032484D01*
X0154765Y0035484D01*
X0154215Y0036034D01*
X0154215Y0037684D01*
X0153665Y0038234D01*
X0153665Y0047034D01*
X0153160Y0047169D01*
X0149497Y0048416D02*
X0148948Y0048416D01*
X0148948Y0049414D02*
X0149497Y0049414D01*
X0149497Y0050413D02*
X0148948Y0050413D01*
X0148948Y0051411D02*
X0149497Y0051411D01*
X0149497Y0052410D02*
X0148948Y0052410D01*
X0147615Y0053408D02*
X0158534Y0053408D01*
X0158534Y0054407D02*
X0147615Y0054407D01*
X0146755Y0055405D02*
X0158534Y0055405D01*
X0158534Y0056404D02*
X0145757Y0056404D01*
X0144758Y0057402D02*
X0158534Y0057402D01*
X0158534Y0058401D02*
X0143760Y0058401D01*
X0129470Y0058401D02*
X0128869Y0058401D01*
X0128869Y0059399D02*
X0158534Y0059399D01*
X0158534Y0060398D02*
X0128869Y0060398D01*
X0128172Y0061396D02*
X0158534Y0061396D01*
X0158534Y0062395D02*
X0128491Y0062395D01*
X0128869Y0063393D02*
X0158534Y0063393D01*
X0158443Y0064392D02*
X0128869Y0064392D01*
X0128869Y0065390D02*
X0158264Y0065390D01*
X0158372Y0066389D02*
X0128869Y0066389D01*
X0128869Y0067387D02*
X0158816Y0067387D01*
X0159996Y0068386D02*
X0128869Y0068386D01*
X0128605Y0070383D02*
X0188104Y0070383D01*
X0188104Y0071382D02*
X0128869Y0071382D01*
X0128869Y0072380D02*
X0188104Y0072380D01*
X0188104Y0073379D02*
X0128869Y0073379D01*
X0128869Y0074377D02*
X0188104Y0074377D01*
X0188104Y0075376D02*
X0128869Y0075376D01*
X0128869Y0076374D02*
X0188104Y0076374D01*
X0188104Y0077373D02*
X0100915Y0077373D01*
X0101465Y0076374D02*
X0106619Y0076374D01*
X0106340Y0076232D02*
X0107069Y0076603D01*
X0107847Y0076856D01*
X0108565Y0076970D01*
X0108565Y0072284D01*
X0103879Y0072284D01*
X0103993Y0073002D01*
X0104246Y0073780D01*
X0104618Y0074510D01*
X0105099Y0075172D01*
X0105677Y0075751D01*
X0106340Y0076232D01*
X0105302Y0075376D02*
X0101465Y0075376D01*
X0101465Y0074377D02*
X0104550Y0074377D01*
X0104115Y0073379D02*
X0101465Y0073379D01*
X0100908Y0072380D02*
X0103895Y0072380D01*
X0101465Y0071382D02*
X0108565Y0071382D01*
X0108565Y0072380D02*
X0109565Y0072380D01*
X0109565Y0073379D02*
X0108565Y0073379D01*
X0108565Y0074377D02*
X0109565Y0074377D01*
X0109565Y0075376D02*
X0108565Y0075376D01*
X0108565Y0076374D02*
X0109565Y0076374D01*
X0107619Y0078371D02*
X0105063Y0078371D01*
X0102835Y0082365D02*
X0100923Y0082365D01*
X0101632Y0083364D02*
X0103833Y0083364D01*
X0104141Y0084362D02*
X0101665Y0084362D01*
X0101665Y0085361D02*
X0104555Y0085361D01*
X0105169Y0086359D02*
X0101665Y0086359D01*
X0101213Y0087358D02*
X0106167Y0087358D01*
X0104524Y0090353D02*
X0101465Y0090353D01*
X0098237Y0096344D02*
X0096427Y0096344D01*
X0095428Y0097343D02*
X0109052Y0097343D01*
X0110050Y0098341D02*
X0107437Y0098341D01*
X0107348Y0098252D02*
X0107628Y0098532D01*
X0107825Y0098874D01*
X0107927Y0099255D01*
X0107927Y0100740D01*
X0104353Y0100740D01*
X0104353Y0101315D01*
X0107927Y0101315D01*
X0107927Y0102800D01*
X0107825Y0103181D01*
X0107628Y0103523D01*
X0107348Y0103803D01*
X0107006Y0104000D01*
X0106625Y0104102D01*
X0104352Y0104102D01*
X0104352Y0101315D01*
X0103778Y0101315D01*
X0103778Y0104102D01*
X0101505Y0104102D01*
X0101124Y0104000D01*
X0100782Y0103803D01*
X0100503Y0103523D01*
X0100305Y0103181D01*
X0100203Y0102800D01*
X0100203Y0101315D01*
X0103778Y0101315D01*
X0103778Y0100740D01*
X0104352Y0100740D01*
X0104352Y0097953D01*
X0106625Y0097953D01*
X0107006Y0098055D01*
X0107348Y0098252D01*
X0107927Y0099340D02*
X0111049Y0099340D01*
X0112047Y0100338D02*
X0107927Y0100338D01*
X0107927Y0101337D02*
X0112215Y0101337D01*
X0112325Y0102335D02*
X0107927Y0102335D01*
X0107737Y0103334D02*
X0112843Y0103334D01*
X0113841Y0104332D02*
X0088439Y0104332D01*
X0089437Y0103334D02*
X0100393Y0103334D01*
X0100203Y0102335D02*
X0090436Y0102335D01*
X0091434Y0101337D02*
X0100203Y0101337D01*
X0100203Y0100740D02*
X0100203Y0099255D01*
X0100305Y0098874D01*
X0100503Y0098532D01*
X0100782Y0098252D01*
X0101124Y0098055D01*
X0101505Y0097953D01*
X0103778Y0097953D01*
X0103778Y0100740D01*
X0100203Y0100740D01*
X0100203Y0100338D02*
X0092433Y0100338D01*
X0092911Y0099860D02*
X0092911Y0099860D01*
X0093431Y0099340D02*
X0100203Y0099340D01*
X0100693Y0098341D02*
X0094430Y0098341D01*
X0087052Y0097343D02*
X0078418Y0097343D01*
X0079416Y0096344D02*
X0086053Y0096344D01*
X0085119Y0095346D02*
X0080415Y0095346D01*
X0080876Y0094884D02*
X0077026Y0098734D01*
X0059254Y0098734D01*
X0057965Y0097446D01*
X0054665Y0094146D01*
X0054665Y0091402D01*
X0053664Y0091402D01*
X0052903Y0090641D01*
X0052903Y0086414D01*
X0053664Y0085653D01*
X0059466Y0085653D01*
X0060227Y0086414D01*
X0060227Y0090641D01*
X0059466Y0091402D01*
X0059065Y0091402D01*
X0059065Y0092323D01*
X0061076Y0094334D01*
X0075204Y0094334D01*
X0077765Y0091773D01*
X0077765Y0088646D01*
X0076854Y0087734D01*
X0076854Y0087734D01*
X0077265Y0088146D01*
X0077265Y0091823D01*
X0076504Y0092584D01*
X0068876Y0092584D01*
X0068776Y0092684D01*
X0067727Y0092684D01*
X0067727Y0093141D01*
X0066966Y0093902D01*
X0061164Y0093902D01*
X0060403Y0093141D01*
X0060403Y0088914D01*
X0061164Y0088153D01*
X0066665Y0088153D01*
X0066665Y0088146D01*
X0067327Y0087484D01*
X0066665Y0086823D01*
X0066665Y0086816D01*
X0061164Y0086816D01*
X0060403Y0086054D01*
X0060403Y0083304D01*
X0060325Y0083595D01*
X0060128Y0083937D01*
X0059848Y0084216D01*
X0059506Y0084414D01*
X0059125Y0084516D01*
X0056852Y0084516D01*
X0056852Y0081728D01*
X0056278Y0081728D01*
X0056278Y0081154D01*
X0052703Y0081154D01*
X0052703Y0079669D01*
X0052805Y0079287D01*
X0053003Y0078945D01*
X0053282Y0078666D01*
X0053624Y0078468D01*
X0054005Y0078366D01*
X0055628Y0078366D01*
X0055403Y0078141D01*
X0055403Y0073914D01*
X0056164Y0073153D01*
X0061966Y0073153D01*
X0062247Y0073434D01*
X0066404Y0073434D01*
X0066665Y0073173D01*
X0066665Y0073146D01*
X0067327Y0072484D01*
X0067177Y0072334D01*
X0066954Y0072334D01*
X0066404Y0071784D01*
X0063654Y0071784D01*
X0063104Y0071234D01*
X0062547Y0071234D01*
X0061966Y0071816D01*
X0056164Y0071816D01*
X0055403Y0071054D01*
X0055403Y0066828D01*
X0055884Y0066346D01*
X0055809Y0066346D01*
X0055809Y0062772D01*
X0055234Y0062772D01*
X0055234Y0066346D01*
X0053749Y0066346D01*
X0053368Y0066244D01*
X0053026Y0066047D01*
X0052747Y0065767D01*
X0052549Y0065425D01*
X0052447Y0065044D01*
X0052447Y0062772D01*
X0055234Y0062772D01*
X0055234Y0062197D01*
X0052447Y0062197D01*
X0052447Y0059925D01*
X0052549Y0059543D01*
X0052747Y0059201D01*
X0053026Y0058922D01*
X0053368Y0058724D01*
X0053749Y0058622D01*
X0055234Y0058622D01*
X0055234Y0062197D01*
X0055809Y0062197D01*
X0055809Y0062772D01*
X0058597Y0062772D01*
X0058597Y0065044D01*
X0058494Y0065425D01*
X0058297Y0065767D01*
X0058018Y0066047D01*
X0057984Y0066066D01*
X0060415Y0066066D01*
X0059734Y0065385D01*
X0059734Y0059584D01*
X0060495Y0058822D01*
X0064722Y0058822D01*
X0065483Y0059584D01*
X0065483Y0060784D01*
X0066665Y0060784D01*
X0066665Y0058146D01*
X0067327Y0057484D01*
X0066665Y0056823D01*
X0066665Y0053146D01*
X0067427Y0052384D01*
X0076504Y0052384D01*
X0077265Y0053146D01*
X0077265Y0056823D01*
X0076604Y0057484D01*
X0077154Y0058034D01*
X0077404Y0058034D01*
X0077765Y0057673D01*
X0077765Y0050696D01*
X0075197Y0048127D01*
X0075060Y0048184D01*
X0073070Y0048184D01*
X0071233Y0047423D01*
X0069826Y0046017D01*
X0069065Y0044179D01*
X0069065Y0042190D01*
X0069826Y0040352D01*
X0071233Y0038945D01*
X0073070Y0038184D01*
X0075060Y0038184D01*
X0076897Y0038945D01*
X0078304Y0040352D01*
X0079065Y0042190D01*
X0079065Y0044179D01*
X0078598Y0045306D01*
X0082165Y0048873D01*
X0082165Y0059496D01*
X0080876Y0060784D01*
X0079226Y0062434D01*
X0076654Y0062434D01*
X0076604Y0062484D01*
X0077265Y0063146D01*
X0077265Y0066823D01*
X0076604Y0067484D01*
X0077265Y0068146D01*
X0077265Y0071823D01*
X0076604Y0072484D01*
X0077265Y0073146D01*
X0077265Y0076823D01*
X0076604Y0077484D01*
X0077265Y0078146D01*
X0077265Y0081823D01*
X0076604Y0082484D01*
X0077265Y0083146D01*
X0077265Y0083334D01*
X0078676Y0083334D01*
X0079965Y0084623D01*
X0082165Y0086823D01*
X0082165Y0093596D01*
X0080876Y0094884D01*
X0081413Y0094347D02*
X0084715Y0094347D01*
X0084715Y0093349D02*
X0082165Y0093349D01*
X0082165Y0092350D02*
X0084715Y0092350D01*
X0084715Y0091352D02*
X0082165Y0091352D01*
X0082165Y0090353D02*
X0084715Y0090353D01*
X0084715Y0089355D02*
X0082165Y0089355D01*
X0082165Y0088356D02*
X0084715Y0088356D01*
X0084715Y0087358D02*
X0082165Y0087358D01*
X0081701Y0086359D02*
X0084715Y0086359D01*
X0084715Y0085361D02*
X0080703Y0085361D01*
X0079704Y0084362D02*
X0084715Y0084362D01*
X0084715Y0083364D02*
X0078706Y0083364D01*
X0076723Y0082365D02*
X0084715Y0082365D01*
X0084715Y0081367D02*
X0077265Y0081367D01*
X0077265Y0080368D02*
X0084715Y0080368D01*
X0084715Y0079370D02*
X0077265Y0079370D01*
X0077265Y0078371D02*
X0084715Y0078371D01*
X0084715Y0077373D02*
X0076715Y0077373D01*
X0077265Y0076374D02*
X0084715Y0076374D01*
X0084715Y0075376D02*
X0077265Y0075376D01*
X0077265Y0074377D02*
X0084715Y0074377D01*
X0084715Y0073379D02*
X0077265Y0073379D01*
X0076708Y0072380D02*
X0084715Y0072380D01*
X0084715Y0071382D02*
X0077265Y0071382D01*
X0077265Y0070383D02*
X0084715Y0070383D01*
X0084715Y0069385D02*
X0077265Y0069385D01*
X0077265Y0068386D02*
X0084715Y0068386D01*
X0084715Y0067387D02*
X0076700Y0067387D01*
X0077265Y0066389D02*
X0084715Y0066389D01*
X0084715Y0065390D02*
X0077265Y0065390D01*
X0077265Y0064392D02*
X0084715Y0064392D01*
X0084715Y0063393D02*
X0077265Y0063393D01*
X0079266Y0062395D02*
X0084715Y0062395D01*
X0084715Y0061396D02*
X0080264Y0061396D01*
X0081263Y0060398D02*
X0084715Y0060398D01*
X0084715Y0059399D02*
X0082165Y0059399D01*
X0082165Y0058401D02*
X0084715Y0058401D01*
X0084715Y0057402D02*
X0082165Y0057402D01*
X0082165Y0056404D02*
X0084715Y0056404D01*
X0084715Y0055405D02*
X0082165Y0055405D01*
X0082165Y0054407D02*
X0084715Y0054407D01*
X0084715Y0053408D02*
X0082165Y0053408D01*
X0082165Y0052410D02*
X0084715Y0052410D01*
X0084715Y0051411D02*
X0082165Y0051411D01*
X0082165Y0050413D02*
X0084715Y0050413D01*
X0084715Y0049414D02*
X0082165Y0049414D01*
X0081708Y0048416D02*
X0084715Y0048416D01*
X0084715Y0047417D02*
X0080709Y0047417D01*
X0079711Y0046419D02*
X0084715Y0046419D01*
X0084715Y0045420D02*
X0078712Y0045420D01*
X0078964Y0044422D02*
X0084715Y0044422D01*
X0084715Y0043423D02*
X0079065Y0043423D01*
X0079065Y0042425D02*
X0084715Y0042425D01*
X0084715Y0041426D02*
X0078749Y0041426D01*
X0078335Y0040428D02*
X0084715Y0040428D01*
X0084715Y0039429D02*
X0077381Y0039429D01*
X0075654Y0038431D02*
X0084715Y0038431D01*
X0084715Y0037432D02*
X0063253Y0037432D01*
X0063153Y0037532D02*
X0054977Y0037532D01*
X0054429Y0036984D01*
X0053929Y0036984D01*
X0052601Y0036434D01*
X0051914Y0036434D01*
X0051218Y0037131D01*
X0050665Y0037131D01*
X0050665Y0041165D01*
X0052774Y0041165D01*
X0053535Y0041926D01*
X0053535Y0058003D01*
X0052774Y0058765D01*
X0044097Y0058765D01*
X0043335Y0058003D01*
X0043335Y0045739D01*
X0043265Y0045570D01*
X0043265Y0045354D01*
X0043205Y0045146D01*
X0043265Y0044624D01*
X0043265Y0037131D01*
X0043054Y0037131D01*
X0042293Y0036369D01*
X0042293Y0028599D01*
X0043054Y0027838D01*
X0051218Y0027838D01*
X0051979Y0028599D01*
X0051979Y0029034D01*
X0054576Y0029034D01*
X0054977Y0028633D01*
X0063153Y0028633D01*
X0063914Y0029395D01*
X0063914Y0036771D01*
X0063153Y0037532D01*
X0063914Y0036434D02*
X0071736Y0036434D01*
X0072069Y0036603D02*
X0071340Y0036232D01*
X0070677Y0035751D01*
X0070099Y0035172D01*
X0069618Y0034510D01*
X0069246Y0033780D01*
X0068993Y0033002D01*
X0068879Y0032284D01*
X0073565Y0032284D01*
X0073565Y0031284D01*
X0074565Y0031284D01*
X0074565Y0026599D01*
X0075283Y0026712D01*
X0076061Y0026965D01*
X0076790Y0027337D01*
X0077453Y0027818D01*
X0078031Y0028397D01*
X0078512Y0029059D01*
X0078884Y0029788D01*
X0079137Y0030567D01*
X0079251Y0031284D01*
X0074565Y0031284D01*
X0074565Y0032284D01*
X0079251Y0032284D01*
X0079137Y0033002D01*
X0078884Y0033780D01*
X0078512Y0034510D01*
X0078031Y0035172D01*
X0077453Y0035751D01*
X0076790Y0036232D01*
X0076061Y0036603D01*
X0075283Y0036856D01*
X0074565Y0036970D01*
X0074565Y0032284D01*
X0073565Y0032284D01*
X0073565Y0036970D01*
X0072847Y0036856D01*
X0072069Y0036603D01*
X0073565Y0036434D02*
X0074565Y0036434D01*
X0074565Y0035435D02*
X0073565Y0035435D01*
X0073565Y0034437D02*
X0074565Y0034437D01*
X0074565Y0033438D02*
X0073565Y0033438D01*
X0073565Y0032440D02*
X0074565Y0032440D01*
X0074565Y0031441D02*
X0086986Y0031441D01*
X0085988Y0032440D02*
X0079226Y0032440D01*
X0078995Y0033438D02*
X0085092Y0033438D01*
X0084715Y0034437D02*
X0078550Y0034437D01*
X0077768Y0035435D02*
X0084715Y0035435D01*
X0084715Y0036434D02*
X0076394Y0036434D01*
X0072476Y0038431D02*
X0050665Y0038431D01*
X0050665Y0039429D02*
X0070749Y0039429D01*
X0069795Y0040428D02*
X0050665Y0040428D01*
X0053035Y0041426D02*
X0069381Y0041426D01*
X0069065Y0042425D02*
X0053535Y0042425D01*
X0053535Y0043423D02*
X0069065Y0043423D01*
X0069166Y0044422D02*
X0053535Y0044422D01*
X0053535Y0045420D02*
X0069579Y0045420D01*
X0070228Y0046419D02*
X0053535Y0046419D01*
X0053535Y0047417D02*
X0071227Y0047417D01*
X0075485Y0048416D02*
X0053535Y0048416D01*
X0053535Y0049414D02*
X0076484Y0049414D01*
X0077482Y0050413D02*
X0053535Y0050413D01*
X0053535Y0051411D02*
X0077765Y0051411D01*
X0077765Y0052410D02*
X0076529Y0052410D01*
X0077265Y0053408D02*
X0077765Y0053408D01*
X0077765Y0054407D02*
X0077265Y0054407D01*
X0077265Y0055405D02*
X0077765Y0055405D01*
X0077765Y0056404D02*
X0077265Y0056404D01*
X0077765Y0057402D02*
X0076685Y0057402D01*
X0078315Y0060234D02*
X0072265Y0060234D01*
X0071965Y0059984D01*
X0066665Y0060398D02*
X0065483Y0060398D01*
X0065299Y0059399D02*
X0066665Y0059399D01*
X0066665Y0058401D02*
X0053137Y0058401D01*
X0053535Y0057402D02*
X0067245Y0057402D01*
X0066665Y0056404D02*
X0053535Y0056404D01*
X0053535Y0055405D02*
X0066665Y0055405D01*
X0066665Y0054407D02*
X0053535Y0054407D01*
X0053535Y0053408D02*
X0066665Y0053408D01*
X0067401Y0052410D02*
X0053535Y0052410D01*
X0055809Y0058622D02*
X0057294Y0058622D01*
X0057676Y0058724D01*
X0058018Y0058922D01*
X0058297Y0059201D01*
X0058494Y0059543D01*
X0058597Y0059925D01*
X0058597Y0062197D01*
X0055809Y0062197D01*
X0055809Y0058622D01*
X0055809Y0059399D02*
X0055234Y0059399D01*
X0055234Y0060398D02*
X0055809Y0060398D01*
X0055809Y0061396D02*
X0055234Y0061396D01*
X0055234Y0062395D02*
X0004065Y0062395D01*
X0004065Y0063393D02*
X0052447Y0063393D01*
X0052447Y0064392D02*
X0004065Y0064392D01*
X0004065Y0065390D02*
X0052540Y0065390D01*
X0055234Y0065390D02*
X0055809Y0065390D01*
X0055809Y0064392D02*
X0055234Y0064392D01*
X0055234Y0063393D02*
X0055809Y0063393D01*
X0055809Y0062395D02*
X0059734Y0062395D01*
X0059734Y0063393D02*
X0058597Y0063393D01*
X0058597Y0064392D02*
X0059734Y0064392D01*
X0059739Y0065390D02*
X0058504Y0065390D01*
X0055842Y0066389D02*
X0004065Y0066389D01*
X0004065Y0067387D02*
X0055403Y0067387D01*
X0055403Y0068386D02*
X0004065Y0068386D01*
X0004065Y0069385D02*
X0055403Y0069385D01*
X0055403Y0070383D02*
X0004065Y0070383D01*
X0004065Y0071382D02*
X0055730Y0071382D01*
X0059065Y0069034D02*
X0059065Y0068941D01*
X0059065Y0069034D02*
X0064015Y0069034D01*
X0064565Y0069584D01*
X0067315Y0069584D01*
X0067865Y0070134D01*
X0071715Y0070134D01*
X0071965Y0069984D01*
X0067222Y0072380D02*
X0004065Y0072380D01*
X0004065Y0073379D02*
X0055939Y0073379D01*
X0055403Y0074377D02*
X0004065Y0074377D01*
X0004065Y0075376D02*
X0055403Y0075376D01*
X0055403Y0076374D02*
X0004065Y0076374D01*
X0004065Y0077373D02*
X0055403Y0077373D01*
X0053987Y0078371D02*
X0004065Y0078371D01*
X0004065Y0079370D02*
X0052783Y0079370D01*
X0052703Y0080368D02*
X0004065Y0080368D01*
X0004065Y0081367D02*
X0056278Y0081367D01*
X0056278Y0081728D02*
X0052703Y0081728D01*
X0052703Y0083213D01*
X0052805Y0083595D01*
X0053003Y0083937D01*
X0053282Y0084216D01*
X0053624Y0084414D01*
X0054005Y0084516D01*
X0056278Y0084516D01*
X0056278Y0081728D01*
X0056853Y0081728D02*
X0060427Y0081728D01*
X0060427Y0081803D01*
X0061164Y0081066D01*
X0065372Y0081066D01*
X0066665Y0079773D01*
X0066665Y0078146D01*
X0066977Y0077834D01*
X0062727Y0077834D01*
X0062727Y0078141D01*
X0061966Y0078902D01*
X0060085Y0078902D01*
X0060128Y0078945D01*
X0060325Y0079287D01*
X0060427Y0079669D01*
X0060427Y0081154D01*
X0056853Y0081154D01*
X0056853Y0081728D01*
X0056853Y0081367D02*
X0060864Y0081367D01*
X0060427Y0080368D02*
X0066070Y0080368D01*
X0066665Y0079370D02*
X0060347Y0079370D01*
X0062497Y0078371D02*
X0066665Y0078371D01*
X0069515Y0080034D02*
X0071715Y0080034D01*
X0071965Y0079984D01*
X0069515Y0080034D02*
X0065665Y0083884D01*
X0064565Y0083884D01*
X0064065Y0083941D01*
X0060403Y0084362D02*
X0059595Y0084362D01*
X0060387Y0083364D02*
X0060403Y0083364D01*
X0060403Y0085361D02*
X0004065Y0085361D01*
X0004065Y0086359D02*
X0052958Y0086359D01*
X0052903Y0087358D02*
X0004065Y0087358D01*
X0004065Y0088356D02*
X0052903Y0088356D01*
X0052903Y0089355D02*
X0004065Y0089355D01*
X0004065Y0090353D02*
X0052903Y0090353D01*
X0053614Y0091352D02*
X0004065Y0091352D01*
X0004065Y0092350D02*
X0054665Y0092350D01*
X0054665Y0093349D02*
X0004065Y0093349D01*
X0004065Y0094347D02*
X0008396Y0094347D01*
X0008281Y0094414D02*
X0008623Y0094216D01*
X0009005Y0094114D01*
X0012502Y0094114D01*
X0012502Y0102614D01*
X0013502Y0102614D01*
X0013502Y0094114D01*
X0017000Y0094114D01*
X0017381Y0094216D01*
X0017723Y0094414D01*
X0018002Y0094693D01*
X0018200Y0095035D01*
X0018302Y0095417D01*
X0018302Y0102614D01*
X0013502Y0102614D01*
X0013502Y0103614D01*
X0018302Y0103614D01*
X0018302Y0110812D01*
X0018200Y0111193D01*
X0018002Y0111535D01*
X0017723Y0111814D01*
X0017381Y0112012D01*
X0017000Y0112114D01*
X0013502Y0112114D01*
X0013502Y0103614D01*
X0012502Y0103614D01*
X0012502Y0102614D01*
X0007702Y0102614D01*
X0007702Y0095417D01*
X0007804Y0095035D01*
X0008002Y0094693D01*
X0008281Y0094414D01*
X0007721Y0095346D02*
X0004065Y0095346D01*
X0004065Y0096344D02*
X0007702Y0096344D01*
X0007702Y0097343D02*
X0004065Y0097343D01*
X0004065Y0098341D02*
X0007702Y0098341D01*
X0007702Y0099340D02*
X0004065Y0099340D01*
X0004065Y0100338D02*
X0007702Y0100338D01*
X0007702Y0101337D02*
X0004065Y0101337D01*
X0004065Y0102335D02*
X0007702Y0102335D01*
X0007702Y0103614D02*
X0007702Y0110812D01*
X0007804Y0111193D01*
X0008002Y0111535D01*
X0008281Y0111814D01*
X0008623Y0112012D01*
X0009005Y0112114D01*
X0012502Y0112114D01*
X0012502Y0103614D01*
X0007702Y0103614D01*
X0007702Y0104332D02*
X0004065Y0104332D01*
X0004065Y0103334D02*
X0012502Y0103334D01*
X0012502Y0104332D02*
X0013502Y0104332D01*
X0013502Y0103334D02*
X0043532Y0103334D01*
X0043532Y0104332D02*
X0018302Y0104332D01*
X0018302Y0105331D02*
X0043532Y0105331D01*
X0043532Y0106329D02*
X0018302Y0106329D01*
X0018302Y0107328D02*
X0043532Y0107328D01*
X0043532Y0108326D02*
X0018302Y0108326D01*
X0018302Y0109325D02*
X0043532Y0109325D01*
X0043532Y0110323D02*
X0018302Y0110323D01*
X0018125Y0111322D02*
X0043938Y0111322D01*
X0043286Y0115316D02*
X0054016Y0115316D01*
X0054016Y0114736D02*
X0054118Y0114354D01*
X0054316Y0114012D01*
X0054595Y0113733D01*
X0054937Y0113535D01*
X0055318Y0113433D01*
X0058565Y0113433D01*
X0058565Y0117583D01*
X0054016Y0117583D01*
X0054016Y0114736D01*
X0054139Y0114318D02*
X0004065Y0114318D01*
X0004065Y0115316D02*
X0012088Y0115316D01*
X0012055Y0115330D02*
X0013893Y0114569D01*
X0015882Y0114569D01*
X0017719Y0115330D01*
X0019126Y0116736D01*
X0019887Y0118574D01*
X0019887Y0120563D01*
X0019126Y0122401D01*
X0017719Y0123807D01*
X0015882Y0124568D01*
X0013893Y0124568D01*
X0012055Y0123807D01*
X0010648Y0122401D01*
X0009887Y0120563D01*
X0009887Y0118574D01*
X0010648Y0116736D01*
X0012055Y0115330D01*
X0011070Y0116315D02*
X0004065Y0116315D01*
X0004065Y0117313D02*
X0010409Y0117313D01*
X0009996Y0118312D02*
X0004065Y0118312D01*
X0004065Y0119310D02*
X0009887Y0119310D01*
X0009887Y0120309D02*
X0004065Y0120309D01*
X0004065Y0121307D02*
X0010195Y0121307D01*
X0010609Y0122306D02*
X0004065Y0122306D01*
X0004065Y0123304D02*
X0011552Y0123304D01*
X0013251Y0124303D02*
X0004065Y0124303D01*
X0004065Y0125301D02*
X0074743Y0125301D01*
X0074465Y0125579D02*
X0077160Y0122884D01*
X0080970Y0122884D01*
X0083665Y0125579D01*
X0083665Y0129390D01*
X0080970Y0132084D01*
X0077160Y0132084D01*
X0076643Y0131568D01*
X0075015Y0133196D01*
X0075015Y0133231D01*
X0075509Y0133231D01*
X0076271Y0133993D01*
X0076271Y0140975D01*
X0075509Y0141737D01*
X0069314Y0141737D01*
X0069206Y0141629D01*
X0069199Y0141637D01*
X0068857Y0141835D01*
X0068475Y0141937D01*
X0066219Y0141937D01*
X0066219Y0137984D01*
X0065219Y0137984D01*
X0065219Y0141937D01*
X0062962Y0141937D01*
X0062581Y0141835D01*
X0062239Y0141637D01*
X0061959Y0141358D01*
X0061762Y0141016D01*
X0061660Y0140634D01*
X0061660Y0137984D01*
X0065219Y0137984D01*
X0065219Y0136984D01*
X0066219Y0136984D01*
X0066219Y0133031D01*
X0068475Y0133031D01*
X0068857Y0133134D01*
X0069199Y0133331D01*
X0069206Y0133339D01*
X0069314Y0133231D01*
X0070615Y0133231D01*
X0070615Y0131373D01*
X0074465Y0127523D01*
X0074465Y0125579D01*
X0074465Y0126300D02*
X0004065Y0126300D01*
X0004065Y0127298D02*
X0074465Y0127298D01*
X0073691Y0128297D02*
X0004065Y0128297D01*
X0004065Y0129295D02*
X0072693Y0129295D01*
X0071694Y0130294D02*
X0004065Y0130294D01*
X0004065Y0131292D02*
X0070696Y0131292D01*
X0070615Y0132291D02*
X0041668Y0132291D01*
X0041705Y0132297D02*
X0042483Y0132549D01*
X0043212Y0132921D01*
X0043875Y0133402D01*
X0044453Y0133981D01*
X0044935Y0134643D01*
X0045306Y0135372D01*
X0045559Y0136151D01*
X0045673Y0136869D01*
X0040987Y0136869D01*
X0040987Y0137868D01*
X0045673Y0137868D01*
X0045559Y0138586D01*
X0045306Y0139365D01*
X0044935Y0140094D01*
X0044453Y0140756D01*
X0043875Y0141335D01*
X0043212Y0141816D01*
X0042483Y0142188D01*
X0041705Y0142440D01*
X0040987Y0142554D01*
X0040987Y0137869D01*
X0039987Y0137869D01*
X0039987Y0142554D01*
X0039269Y0142440D01*
X0038491Y0142188D01*
X0037762Y0141816D01*
X0037100Y0141335D01*
X0036521Y0140756D01*
X0036040Y0140094D01*
X0035668Y0139365D01*
X0035415Y0138586D01*
X0035301Y0137868D01*
X0039987Y0137868D01*
X0039987Y0136869D01*
X0035301Y0136869D01*
X0035415Y0136151D01*
X0035668Y0135372D01*
X0036040Y0134643D01*
X0036521Y0133981D01*
X0037100Y0133402D01*
X0037762Y0132921D01*
X0038491Y0132549D01*
X0039269Y0132297D01*
X0039987Y0132183D01*
X0039987Y0136868D01*
X0040987Y0136868D01*
X0040987Y0132183D01*
X0041705Y0132297D01*
X0040987Y0132291D02*
X0039987Y0132291D01*
X0039306Y0132291D02*
X0016068Y0132291D01*
X0016105Y0132297D02*
X0016883Y0132549D01*
X0017613Y0132921D01*
X0018275Y0133402D01*
X0018853Y0133981D01*
X0019335Y0134643D01*
X0019706Y0135372D01*
X0019959Y0136151D01*
X0020073Y0136869D01*
X0015387Y0136869D01*
X0015387Y0137868D01*
X0020073Y0137868D01*
X0019959Y0138586D01*
X0019706Y0139365D01*
X0019335Y0140094D01*
X0018853Y0140756D01*
X0018275Y0141335D01*
X0017613Y0141816D01*
X0016883Y0142188D01*
X0016105Y0142440D01*
X0015387Y0142554D01*
X0015387Y0137869D01*
X0014387Y0137869D01*
X0014387Y0142554D01*
X0013669Y0142440D01*
X0012891Y0142188D01*
X0012162Y0141816D01*
X0011500Y0141335D01*
X0010921Y0140756D01*
X0010440Y0140094D01*
X0010068Y0139365D01*
X0009815Y0138586D01*
X0009701Y0137868D01*
X0014387Y0137868D01*
X0014387Y0136869D01*
X0009701Y0136869D01*
X0009815Y0136151D01*
X0010068Y0135372D01*
X0010440Y0134643D01*
X0010921Y0133981D01*
X0011500Y0133402D01*
X0012162Y0132921D01*
X0012891Y0132549D01*
X0013669Y0132297D01*
X0014387Y0132183D01*
X0014387Y0136868D01*
X0015387Y0136868D01*
X0015387Y0132183D01*
X0016105Y0132297D01*
X0015387Y0132291D02*
X0014387Y0132291D01*
X0013706Y0132291D02*
X0004065Y0132291D01*
X0004065Y0133289D02*
X0011655Y0133289D01*
X0010698Y0134288D02*
X0004065Y0134288D01*
X0004065Y0135286D02*
X0010112Y0135286D01*
X0009794Y0136285D02*
X0004065Y0136285D01*
X0004065Y0137283D02*
X0014387Y0137283D01*
X0014387Y0136285D02*
X0015387Y0136285D01*
X0015387Y0137283D02*
X0039987Y0137283D01*
X0039987Y0136285D02*
X0040987Y0136285D01*
X0040987Y0137283D02*
X0065219Y0137283D01*
X0065219Y0136984D02*
X0061660Y0136984D01*
X0061660Y0134334D01*
X0061762Y0133953D01*
X0061959Y0133610D01*
X0062239Y0133331D01*
X0062581Y0133134D01*
X0062962Y0133031D01*
X0065219Y0133031D01*
X0065219Y0136984D01*
X0065219Y0136285D02*
X0066219Y0136285D01*
X0066219Y0135286D02*
X0065219Y0135286D01*
X0065219Y0134288D02*
X0066219Y0134288D01*
X0066219Y0133289D02*
X0065219Y0133289D01*
X0062311Y0133289D02*
X0043719Y0133289D01*
X0044676Y0134288D02*
X0061672Y0134288D01*
X0061660Y0135286D02*
X0045262Y0135286D01*
X0045580Y0136285D02*
X0061660Y0136285D01*
X0061660Y0138282D02*
X0045607Y0138282D01*
X0045334Y0139280D02*
X0061660Y0139280D01*
X0061660Y0140279D02*
X0044800Y0140279D01*
X0043932Y0141277D02*
X0061913Y0141277D01*
X0065219Y0141277D02*
X0066219Y0141277D01*
X0066219Y0140279D02*
X0065219Y0140279D01*
X0065219Y0139280D02*
X0066219Y0139280D01*
X0066219Y0138282D02*
X0065219Y0138282D01*
X0072412Y0137484D02*
X0072815Y0137234D01*
X0072815Y0132284D01*
X0077215Y0127884D01*
X0078865Y0127884D01*
X0079065Y0127484D01*
X0075741Y0124303D02*
X0042124Y0124303D01*
X0041482Y0124568D02*
X0039493Y0124568D01*
X0037655Y0123807D01*
X0036248Y0122401D01*
X0035487Y0120563D01*
X0035487Y0118574D01*
X0036248Y0116736D01*
X0037655Y0115330D01*
X0039493Y0114569D01*
X0041482Y0114569D01*
X0043319Y0115330D01*
X0044726Y0116736D01*
X0045487Y0118574D01*
X0045487Y0120563D01*
X0044726Y0122401D01*
X0043319Y0123807D01*
X0041482Y0124568D01*
X0038851Y0124303D02*
X0016524Y0124303D01*
X0018223Y0123304D02*
X0037152Y0123304D01*
X0036209Y0122306D02*
X0019165Y0122306D01*
X0019579Y0121307D02*
X0035795Y0121307D01*
X0035487Y0120309D02*
X0019887Y0120309D01*
X0019887Y0119310D02*
X0035487Y0119310D01*
X0035596Y0118312D02*
X0019778Y0118312D01*
X0019365Y0117313D02*
X0036009Y0117313D01*
X0036670Y0116315D02*
X0018704Y0116315D01*
X0017686Y0115316D02*
X0037688Y0115316D01*
X0044304Y0116315D02*
X0054016Y0116315D01*
X0054016Y0117313D02*
X0044965Y0117313D01*
X0045378Y0118312D02*
X0058565Y0118312D01*
X0058565Y0118583D02*
X0058565Y0117583D01*
X0059565Y0117583D01*
X0059565Y0118583D01*
X0058565Y0118583D01*
X0058565Y0122732D01*
X0055318Y0122732D01*
X0054937Y0122630D01*
X0054595Y0122433D01*
X0054316Y0122153D01*
X0054118Y0121811D01*
X0054016Y0121430D01*
X0054016Y0118583D01*
X0058565Y0118583D01*
X0058565Y0119310D02*
X0059565Y0119310D01*
X0059565Y0118583D02*
X0059565Y0122732D01*
X0062812Y0122732D01*
X0063193Y0122630D01*
X0063535Y0122433D01*
X0063815Y0122153D01*
X0064012Y0121811D01*
X0064114Y0121430D01*
X0064114Y0118583D01*
X0059565Y0118583D01*
X0059565Y0118312D02*
X0074465Y0118312D01*
X0074465Y0119310D02*
X0064114Y0119310D01*
X0064114Y0120309D02*
X0075384Y0120309D01*
X0074465Y0119390D02*
X0074465Y0115579D01*
X0077160Y0112884D01*
X0080970Y0112884D01*
X0083665Y0115579D01*
X0083665Y0119390D01*
X0080970Y0122084D01*
X0077160Y0122084D01*
X0074465Y0119390D01*
X0076383Y0121307D02*
X0064114Y0121307D01*
X0063662Y0122306D02*
X0134014Y0122306D01*
X0133016Y0121307D02*
X0121748Y0121307D01*
X0120970Y0122084D02*
X0117160Y0122084D01*
X0114465Y0119390D01*
X0114465Y0115579D01*
X0117160Y0112884D01*
X0120970Y0112884D01*
X0123665Y0115579D01*
X0123665Y0119390D01*
X0120970Y0122084D01*
X0120970Y0122884D02*
X0123665Y0125579D01*
X0123665Y0129390D01*
X0120970Y0132084D01*
X0117160Y0132084D01*
X0116718Y0131643D01*
X0115129Y0133231D01*
X0115509Y0133231D01*
X0116271Y0133993D01*
X0116271Y0140975D01*
X0115509Y0141737D01*
X0109314Y0141737D01*
X0109206Y0141629D01*
X0109199Y0141637D01*
X0108857Y0141835D01*
X0108475Y0141937D01*
X0106219Y0141937D01*
X0106219Y0137984D01*
X0105219Y0137984D01*
X0105219Y0141937D01*
X0102962Y0141937D01*
X0102581Y0141835D01*
X0102239Y0141637D01*
X0101959Y0141358D01*
X0101762Y0141016D01*
X0101660Y0140634D01*
X0101660Y0137984D01*
X0105219Y0137984D01*
X0105219Y0136984D01*
X0106219Y0136984D01*
X0106219Y0133031D01*
X0108475Y0133031D01*
X0108857Y0133134D01*
X0109199Y0133331D01*
X0109206Y0133339D01*
X0109314Y0133231D01*
X0110215Y0133231D01*
X0110215Y0131923D01*
X0114465Y0127673D01*
X0114465Y0125579D01*
X0117160Y0122884D01*
X0120970Y0122884D01*
X0121390Y0123304D02*
X0135013Y0123304D01*
X0136012Y0124303D02*
X0122389Y0124303D01*
X0123387Y0125301D02*
X0137010Y0125301D01*
X0138009Y0126300D02*
X0123665Y0126300D01*
X0123665Y0127298D02*
X0139007Y0127298D01*
X0140163Y0128297D02*
X0123665Y0128297D01*
X0123665Y0129295D02*
X0160179Y0129295D01*
X0167951Y0129295D02*
X0170179Y0129295D01*
X0177951Y0129295D02*
X0179697Y0129295D01*
X0179715Y0129362D02*
X0179612Y0128981D01*
X0179612Y0126724D01*
X0183565Y0126724D01*
X0183565Y0130283D01*
X0180915Y0130283D01*
X0180533Y0130181D01*
X0180191Y0129984D01*
X0179912Y0129704D01*
X0179715Y0129362D01*
X0179612Y0128297D02*
X0178318Y0128297D01*
X0178318Y0127298D02*
X0179612Y0127298D01*
X0178318Y0126300D02*
X0183565Y0126300D01*
X0183565Y0127298D02*
X0184565Y0127298D01*
X0184565Y0128297D02*
X0183565Y0128297D01*
X0183565Y0129295D02*
X0184565Y0129295D01*
X0188104Y0130294D02*
X0122761Y0130294D01*
X0121762Y0131292D02*
X0188104Y0131292D01*
X0188104Y0132291D02*
X0116070Y0132291D01*
X0115567Y0133289D02*
X0188104Y0133289D01*
X0188104Y0134288D02*
X0116271Y0134288D01*
X0116271Y0135286D02*
X0188104Y0135286D01*
X0188104Y0136285D02*
X0116271Y0136285D01*
X0116271Y0137283D02*
X0188104Y0137283D01*
X0188104Y0138282D02*
X0116271Y0138282D01*
X0116271Y0139280D02*
X0188104Y0139280D01*
X0188104Y0140279D02*
X0116271Y0140279D01*
X0115969Y0141277D02*
X0188104Y0141277D01*
X0188104Y0142276D02*
X0042211Y0142276D01*
X0040987Y0142276D02*
X0039987Y0142276D01*
X0039987Y0141277D02*
X0040987Y0141277D01*
X0040987Y0140279D02*
X0039987Y0140279D01*
X0039987Y0139280D02*
X0040987Y0139280D01*
X0040987Y0138282D02*
X0039987Y0138282D01*
X0039987Y0135286D02*
X0040987Y0135286D01*
X0040987Y0134288D02*
X0039987Y0134288D01*
X0039987Y0133289D02*
X0040987Y0133289D01*
X0037255Y0133289D02*
X0018119Y0133289D01*
X0019076Y0134288D02*
X0036298Y0134288D01*
X0035712Y0135286D02*
X0019662Y0135286D01*
X0019980Y0136285D02*
X0035394Y0136285D01*
X0035367Y0138282D02*
X0020007Y0138282D01*
X0019734Y0139280D02*
X0035641Y0139280D01*
X0036174Y0140279D02*
X0019200Y0140279D01*
X0018332Y0141277D02*
X0037042Y0141277D01*
X0038763Y0142276D02*
X0016611Y0142276D01*
X0015387Y0142276D02*
X0014387Y0142276D01*
X0014387Y0141277D02*
X0015387Y0141277D01*
X0015387Y0140279D02*
X0014387Y0140279D01*
X0014387Y0139280D02*
X0015387Y0139280D01*
X0015387Y0138282D02*
X0014387Y0138282D01*
X0014387Y0135286D02*
X0015387Y0135286D01*
X0015387Y0134288D02*
X0014387Y0134288D01*
X0014387Y0133289D02*
X0015387Y0133289D01*
X0009767Y0138282D02*
X0004065Y0138282D01*
X0004065Y0139280D02*
X0010041Y0139280D01*
X0010574Y0140279D02*
X0004065Y0140279D01*
X0004065Y0141277D02*
X0011442Y0141277D01*
X0013163Y0142276D02*
X0004065Y0142276D01*
X0004065Y0143274D02*
X0188104Y0143274D01*
X0179612Y0125301D02*
X0178318Y0125301D01*
X0178318Y0124303D02*
X0179612Y0124303D01*
X0179656Y0123304D02*
X0178318Y0123304D01*
X0178248Y0122306D02*
X0180276Y0122306D01*
X0179812Y0121307D02*
X0178318Y0121307D01*
X0174565Y0119084D02*
X0174065Y0119138D01*
X0174565Y0119084D02*
X0183915Y0119084D01*
X0184065Y0118744D01*
X0184465Y0118534D01*
X0184465Y0108084D01*
X0184656Y0107799D01*
X0180993Y0107328D02*
X0180444Y0107328D01*
X0180444Y0108326D02*
X0180993Y0108326D01*
X0180993Y0109325D02*
X0180444Y0109325D01*
X0180444Y0110323D02*
X0180993Y0110323D01*
X0180993Y0111322D02*
X0180444Y0111322D01*
X0180444Y0112320D02*
X0180993Y0112320D01*
X0180444Y0113062D02*
X0179682Y0113824D01*
X0173881Y0113824D01*
X0173119Y0113062D01*
X0173119Y0102536D01*
X0173881Y0101775D01*
X0179682Y0101775D01*
X0180444Y0102536D01*
X0180444Y0113062D01*
X0180187Y0113319D02*
X0181250Y0113319D01*
X0182265Y0114318D02*
X0171265Y0114318D01*
X0170537Y0115316D02*
X0170445Y0115316D01*
X0169812Y0116315D02*
X0169446Y0116315D01*
X0169812Y0117313D02*
X0168448Y0117313D01*
X0168318Y0118312D02*
X0169812Y0118312D01*
X0169812Y0119310D02*
X0168318Y0119310D01*
X0168318Y0120309D02*
X0169812Y0120309D01*
X0169812Y0121307D02*
X0168318Y0121307D01*
X0168248Y0122306D02*
X0169883Y0122306D01*
X0165765Y0117434D02*
X0165765Y0116884D01*
X0169065Y0113584D01*
X0169065Y0108084D01*
X0168908Y0107799D01*
X0172570Y0107328D02*
X0173119Y0107328D01*
X0173119Y0108326D02*
X0172570Y0108326D01*
X0172570Y0109325D02*
X0173119Y0109325D01*
X0173119Y0110323D02*
X0172570Y0110323D01*
X0172570Y0111322D02*
X0173119Y0111322D01*
X0173119Y0112320D02*
X0172570Y0112320D01*
X0172313Y0113319D02*
X0173376Y0113319D01*
X0177594Y0115316D02*
X0180143Y0115316D01*
X0179812Y0116315D02*
X0178318Y0116315D01*
X0165765Y0117434D02*
X0164115Y0119084D01*
X0164065Y0119138D01*
X0159812Y0119310D02*
X0139363Y0119310D01*
X0140361Y0120309D02*
X0159812Y0120309D01*
X0159812Y0121307D02*
X0141360Y0121307D01*
X0142358Y0122306D02*
X0159883Y0122306D01*
X0159812Y0118312D02*
X0153605Y0118312D01*
X0153334Y0118582D02*
X0152121Y0119084D01*
X0150809Y0119084D01*
X0149596Y0118582D01*
X0148667Y0117654D01*
X0148165Y0116441D01*
X0148165Y0115128D01*
X0148667Y0113915D01*
X0149509Y0113074D01*
X0149497Y0113062D01*
X0149497Y0102536D01*
X0150259Y0101775D01*
X0156060Y0101775D01*
X0156822Y0102536D01*
X0156822Y0113062D01*
X0156060Y0113824D01*
X0155315Y0113824D01*
X0155315Y0115046D01*
X0154765Y0115596D01*
X0154765Y0116441D01*
X0154263Y0117654D01*
X0153334Y0118582D01*
X0154404Y0117313D02*
X0159812Y0117313D01*
X0159812Y0116315D02*
X0154765Y0116315D01*
X0155045Y0115316D02*
X0160537Y0115316D01*
X0158133Y0113824D02*
X0157371Y0113062D01*
X0157371Y0102536D01*
X0158133Y0101775D01*
X0163934Y0101775D01*
X0164696Y0102536D01*
X0164696Y0113062D01*
X0163934Y0113824D01*
X0158133Y0113824D01*
X0157628Y0113319D02*
X0156565Y0113319D01*
X0156822Y0112320D02*
X0157371Y0112320D01*
X0157371Y0111322D02*
X0156822Y0111322D01*
X0156822Y0110323D02*
X0157371Y0110323D01*
X0157371Y0109325D02*
X0156822Y0109325D01*
X0156822Y0108326D02*
X0157371Y0108326D01*
X0157371Y0107328D02*
X0156822Y0107328D01*
X0156822Y0106329D02*
X0157371Y0106329D01*
X0157371Y0105331D02*
X0156822Y0105331D01*
X0156822Y0104332D02*
X0157371Y0104332D01*
X0157371Y0103334D02*
X0156822Y0103334D01*
X0156621Y0102335D02*
X0157572Y0102335D01*
X0149698Y0102335D02*
X0148747Y0102335D01*
X0148948Y0102536D02*
X0148186Y0101775D01*
X0147065Y0101775D01*
X0147065Y0100491D01*
X0147065Y0099178D01*
X0146563Y0097965D01*
X0145634Y0097037D01*
X0144421Y0096534D01*
X0143109Y0096534D01*
X0141896Y0097037D01*
X0140967Y0097965D01*
X0140465Y0099178D01*
X0140465Y0100491D01*
X0140967Y0101704D01*
X0141712Y0102448D01*
X0141623Y0102536D01*
X0141623Y0113062D01*
X0142385Y0113824D01*
X0148186Y0113824D01*
X0148948Y0113062D01*
X0148948Y0102536D01*
X0148948Y0103334D02*
X0149497Y0103334D01*
X0149497Y0104332D02*
X0148948Y0104332D01*
X0148948Y0105331D02*
X0149497Y0105331D01*
X0149497Y0106329D02*
X0148948Y0106329D01*
X0148948Y0107328D02*
X0149497Y0107328D01*
X0149497Y0108326D02*
X0148948Y0108326D01*
X0148948Y0109325D02*
X0149497Y0109325D01*
X0149497Y0110323D02*
X0148948Y0110323D01*
X0148948Y0111322D02*
X0149497Y0111322D01*
X0149497Y0112320D02*
X0148948Y0112320D01*
X0148691Y0113319D02*
X0149263Y0113319D01*
X0148501Y0114318D02*
X0134370Y0114318D01*
X0134006Y0113319D02*
X0133372Y0113319D01*
X0133200Y0112320D02*
X0133749Y0112320D01*
X0133749Y0111322D02*
X0133200Y0111322D01*
X0133200Y0110323D02*
X0133749Y0110323D01*
X0133749Y0109325D02*
X0133200Y0109325D01*
X0133200Y0108326D02*
X0133749Y0108326D01*
X0133749Y0107328D02*
X0133200Y0107328D01*
X0133200Y0106329D02*
X0133749Y0106329D01*
X0133749Y0105331D02*
X0133200Y0105331D01*
X0133200Y0104332D02*
X0133749Y0104332D01*
X0133749Y0103334D02*
X0133200Y0103334D01*
X0132999Y0102335D02*
X0133950Y0102335D01*
X0137165Y0100934D02*
X0132765Y0096534D01*
X0135245Y0094347D02*
X0188104Y0094347D01*
X0188104Y0093349D02*
X0133698Y0093349D01*
X0131832Y0093349D02*
X0113402Y0093349D01*
X0108053Y0096344D02*
X0107437Y0096344D01*
X0104352Y0098341D02*
X0103778Y0098341D01*
X0103778Y0099340D02*
X0104352Y0099340D01*
X0104352Y0100338D02*
X0103778Y0100338D01*
X0103778Y0101337D02*
X0104352Y0101337D01*
X0104352Y0102335D02*
X0103778Y0102335D01*
X0103778Y0103334D02*
X0104352Y0103334D01*
X0114840Y0105331D02*
X0087440Y0105331D01*
X0086442Y0106329D02*
X0115838Y0106329D01*
X0116837Y0107328D02*
X0085443Y0107328D01*
X0084445Y0108326D02*
X0117835Y0108326D01*
X0125875Y0109325D02*
X0083446Y0109325D01*
X0081405Y0113319D02*
X0096725Y0113319D01*
X0097160Y0112884D02*
X0094465Y0115579D01*
X0094465Y0119390D01*
X0097160Y0122084D01*
X0100970Y0122084D01*
X0103665Y0119390D01*
X0103665Y0115579D01*
X0100970Y0112884D01*
X0097160Y0112884D01*
X0095726Y0114318D02*
X0082404Y0114318D01*
X0083402Y0115316D02*
X0094728Y0115316D01*
X0094465Y0116315D02*
X0083665Y0116315D01*
X0083665Y0117313D02*
X0094465Y0117313D01*
X0094465Y0118312D02*
X0083665Y0118312D01*
X0083665Y0119310D02*
X0094465Y0119310D01*
X0095384Y0120309D02*
X0082746Y0120309D01*
X0081748Y0121307D02*
X0096383Y0121307D01*
X0097160Y0122884D02*
X0100970Y0122884D01*
X0103665Y0125579D01*
X0103665Y0129390D01*
X0100970Y0132084D01*
X0097160Y0132084D01*
X0096818Y0131743D01*
X0095329Y0133231D01*
X0095509Y0133231D01*
X0096271Y0133993D01*
X0096271Y0140975D01*
X0095509Y0141737D01*
X0089314Y0141737D01*
X0089206Y0141629D01*
X0089199Y0141637D01*
X0088857Y0141835D01*
X0088475Y0141937D01*
X0086219Y0141937D01*
X0086219Y0137984D01*
X0085219Y0137984D01*
X0085219Y0141937D01*
X0082962Y0141937D01*
X0082581Y0141835D01*
X0082239Y0141637D01*
X0081959Y0141358D01*
X0081762Y0141016D01*
X0081660Y0140634D01*
X0081660Y0137984D01*
X0085219Y0137984D01*
X0085219Y0136984D01*
X0086219Y0136984D01*
X0086219Y0133031D01*
X0088475Y0133031D01*
X0088857Y0133134D01*
X0089199Y0133331D01*
X0089206Y0133339D01*
X0089314Y0133231D01*
X0090415Y0133231D01*
X0090415Y0131923D01*
X0091704Y0130634D01*
X0094465Y0127873D01*
X0094465Y0125579D01*
X0097160Y0122884D01*
X0096740Y0123304D02*
X0081390Y0123304D01*
X0082389Y0124303D02*
X0095741Y0124303D01*
X0094743Y0125301D02*
X0083387Y0125301D01*
X0083665Y0126300D02*
X0094465Y0126300D01*
X0094465Y0127298D02*
X0083665Y0127298D01*
X0083665Y0128297D02*
X0094041Y0128297D01*
X0093043Y0129295D02*
X0083665Y0129295D01*
X0082761Y0130294D02*
X0092044Y0130294D01*
X0091704Y0130634D02*
X0091704Y0130634D01*
X0091046Y0131292D02*
X0081762Y0131292D01*
X0082581Y0133134D02*
X0082962Y0133031D01*
X0085219Y0133031D01*
X0085219Y0136984D01*
X0081660Y0136984D01*
X0081660Y0134334D01*
X0081762Y0133953D01*
X0081959Y0133610D01*
X0082239Y0133331D01*
X0082581Y0133134D01*
X0082311Y0133289D02*
X0075567Y0133289D01*
X0075920Y0132291D02*
X0090415Y0132291D01*
X0089256Y0133289D02*
X0089126Y0133289D01*
X0092615Y0132834D02*
X0097565Y0127884D01*
X0098665Y0127884D01*
X0099065Y0127484D01*
X0102389Y0124303D02*
X0115741Y0124303D01*
X0114743Y0125301D02*
X0103387Y0125301D01*
X0103665Y0126300D02*
X0114465Y0126300D01*
X0114465Y0127298D02*
X0103665Y0127298D01*
X0103665Y0128297D02*
X0113841Y0128297D01*
X0112843Y0129295D02*
X0103665Y0129295D01*
X0102761Y0130294D02*
X0111844Y0130294D01*
X0110846Y0131292D02*
X0101762Y0131292D01*
X0102581Y0133134D02*
X0102962Y0133031D01*
X0105219Y0133031D01*
X0105219Y0136984D01*
X0101660Y0136984D01*
X0101660Y0134334D01*
X0101762Y0133953D01*
X0101959Y0133610D01*
X0102239Y0133331D01*
X0102581Y0133134D01*
X0102311Y0133289D02*
X0095567Y0133289D01*
X0096270Y0132291D02*
X0110215Y0132291D01*
X0109256Y0133289D02*
X0109126Y0133289D01*
X0112415Y0132834D02*
X0117365Y0127884D01*
X0119015Y0127884D01*
X0119065Y0127484D01*
X0116740Y0123304D02*
X0101390Y0123304D01*
X0101748Y0121307D02*
X0116383Y0121307D01*
X0115384Y0120309D02*
X0102746Y0120309D01*
X0103665Y0119310D02*
X0114465Y0119310D01*
X0114465Y0118312D02*
X0103665Y0118312D01*
X0103665Y0117313D02*
X0114465Y0117313D01*
X0114465Y0116315D02*
X0103665Y0116315D01*
X0103402Y0115316D02*
X0114728Y0115316D01*
X0115726Y0114318D02*
X0102404Y0114318D01*
X0101405Y0113319D02*
X0116725Y0113319D01*
X0121405Y0113319D02*
X0125965Y0113319D01*
X0125875Y0112320D02*
X0004065Y0112320D01*
X0004065Y0111322D02*
X0007879Y0111322D01*
X0007702Y0110323D02*
X0004065Y0110323D01*
X0004065Y0109325D02*
X0007702Y0109325D01*
X0007702Y0108326D02*
X0004065Y0108326D01*
X0004065Y0107328D02*
X0007702Y0107328D01*
X0007702Y0106329D02*
X0004065Y0106329D01*
X0004065Y0105331D02*
X0007702Y0105331D01*
X0012502Y0105331D02*
X0013502Y0105331D01*
X0013502Y0106329D02*
X0012502Y0106329D01*
X0012502Y0107328D02*
X0013502Y0107328D01*
X0013502Y0108326D02*
X0012502Y0108326D01*
X0012502Y0109325D02*
X0013502Y0109325D01*
X0013502Y0110323D02*
X0012502Y0110323D01*
X0012502Y0111322D02*
X0013502Y0111322D01*
X0004065Y0113319D02*
X0076725Y0113319D01*
X0075726Y0114318D02*
X0063991Y0114318D01*
X0064012Y0114354D02*
X0064114Y0114736D01*
X0064114Y0117583D01*
X0059565Y0117583D01*
X0059565Y0113433D01*
X0062812Y0113433D01*
X0063193Y0113535D01*
X0063535Y0113733D01*
X0063815Y0114012D01*
X0064012Y0114354D01*
X0064114Y0115316D02*
X0074728Y0115316D01*
X0074465Y0116315D02*
X0064114Y0116315D01*
X0064114Y0117313D02*
X0074465Y0117313D01*
X0076740Y0123304D02*
X0043823Y0123304D01*
X0044765Y0122306D02*
X0054468Y0122306D01*
X0054016Y0121307D02*
X0045179Y0121307D01*
X0045487Y0120309D02*
X0054016Y0120309D01*
X0054016Y0119310D02*
X0045487Y0119310D01*
X0053326Y0111322D02*
X0054964Y0111322D01*
X0058565Y0114318D02*
X0059565Y0114318D01*
X0059565Y0115316D02*
X0058565Y0115316D01*
X0058565Y0116315D02*
X0059565Y0116315D01*
X0059565Y0117313D02*
X0058565Y0117313D01*
X0058565Y0120309D02*
X0059565Y0120309D01*
X0059565Y0121307D02*
X0058565Y0121307D01*
X0058565Y0122306D02*
X0059565Y0122306D01*
X0069126Y0133289D02*
X0069256Y0133289D01*
X0076271Y0134288D02*
X0081672Y0134288D01*
X0081660Y0135286D02*
X0076271Y0135286D01*
X0076271Y0136285D02*
X0081660Y0136285D01*
X0081660Y0138282D02*
X0076271Y0138282D01*
X0076271Y0139280D02*
X0081660Y0139280D01*
X0081660Y0140279D02*
X0076271Y0140279D01*
X0075969Y0141277D02*
X0081913Y0141277D01*
X0085219Y0141277D02*
X0086219Y0141277D01*
X0086219Y0140279D02*
X0085219Y0140279D01*
X0085219Y0139280D02*
X0086219Y0139280D01*
X0086219Y0138282D02*
X0085219Y0138282D01*
X0085219Y0137283D02*
X0076271Y0137283D01*
X0085219Y0136285D02*
X0086219Y0136285D01*
X0086219Y0135286D02*
X0085219Y0135286D01*
X0085219Y0134288D02*
X0086219Y0134288D01*
X0086219Y0133289D02*
X0085219Y0133289D01*
X0092615Y0132834D02*
X0092615Y0137234D01*
X0092412Y0137484D01*
X0096271Y0137283D02*
X0105219Y0137283D01*
X0105219Y0136285D02*
X0106219Y0136285D01*
X0106219Y0135286D02*
X0105219Y0135286D01*
X0105219Y0134288D02*
X0106219Y0134288D01*
X0106219Y0133289D02*
X0105219Y0133289D01*
X0101672Y0134288D02*
X0096271Y0134288D01*
X0096271Y0135286D02*
X0101660Y0135286D01*
X0101660Y0136285D02*
X0096271Y0136285D01*
X0096271Y0138282D02*
X0101660Y0138282D01*
X0101660Y0139280D02*
X0096271Y0139280D01*
X0096271Y0140279D02*
X0101660Y0140279D01*
X0101913Y0141277D02*
X0095969Y0141277D01*
X0105219Y0141277D02*
X0106219Y0141277D01*
X0106219Y0140279D02*
X0105219Y0140279D01*
X0105219Y0139280D02*
X0106219Y0139280D01*
X0106219Y0138282D02*
X0105219Y0138282D01*
X0112412Y0137484D02*
X0112415Y0137234D01*
X0112415Y0132834D01*
X0122746Y0120309D02*
X0132017Y0120309D01*
X0131019Y0119310D02*
X0123665Y0119310D01*
X0123665Y0118312D02*
X0130020Y0118312D01*
X0129022Y0117313D02*
X0123665Y0117313D01*
X0123665Y0116315D02*
X0128023Y0116315D01*
X0127025Y0115316D02*
X0123402Y0115316D01*
X0122404Y0114318D02*
X0126254Y0114318D01*
X0125875Y0111322D02*
X0063166Y0111322D01*
X0063914Y0110323D02*
X0125875Y0110323D01*
X0135369Y0115316D02*
X0148165Y0115316D01*
X0148165Y0116315D02*
X0136367Y0116315D01*
X0137366Y0117313D02*
X0148526Y0117313D01*
X0149325Y0118312D02*
X0138364Y0118312D01*
X0140817Y0113319D02*
X0141880Y0113319D01*
X0141623Y0112320D02*
X0141074Y0112320D01*
X0141074Y0111322D02*
X0141623Y0111322D01*
X0141623Y0110323D02*
X0141074Y0110323D01*
X0141074Y0109325D02*
X0141623Y0109325D01*
X0141623Y0108326D02*
X0141074Y0108326D01*
X0141074Y0107328D02*
X0141623Y0107328D01*
X0141623Y0106329D02*
X0141074Y0106329D01*
X0141074Y0105331D02*
X0141623Y0105331D01*
X0141623Y0104332D02*
X0141074Y0104332D01*
X0141074Y0103334D02*
X0141623Y0103334D01*
X0141599Y0102335D02*
X0140873Y0102335D01*
X0140816Y0101337D02*
X0139365Y0101337D01*
X0139365Y0100338D02*
X0140465Y0100338D01*
X0140465Y0099340D02*
X0138682Y0099340D01*
X0137683Y0098341D02*
X0140812Y0098341D01*
X0141590Y0097343D02*
X0136685Y0097343D01*
X0136065Y0096344D02*
X0188104Y0096344D01*
X0188104Y0095346D02*
X0135845Y0095346D01*
X0137165Y0100934D02*
X0137165Y0107534D01*
X0137412Y0107799D01*
X0144865Y0107534D02*
X0145286Y0107799D01*
X0144865Y0107534D02*
X0144865Y0100934D01*
X0143765Y0099834D01*
X0145941Y0097343D02*
X0188104Y0097343D01*
X0188104Y0098341D02*
X0146719Y0098341D01*
X0147065Y0099340D02*
X0188104Y0099340D01*
X0188104Y0100338D02*
X0147065Y0100338D01*
X0147065Y0101337D02*
X0188104Y0101337D01*
X0181194Y0102335D02*
X0180243Y0102335D01*
X0180444Y0103334D02*
X0180993Y0103334D01*
X0180993Y0104332D02*
X0180444Y0104332D01*
X0180444Y0105331D02*
X0180993Y0105331D01*
X0180993Y0106329D02*
X0180444Y0106329D01*
X0173320Y0102335D02*
X0172369Y0102335D01*
X0172570Y0103334D02*
X0173119Y0103334D01*
X0173119Y0104332D02*
X0172570Y0104332D01*
X0172570Y0105331D02*
X0173119Y0105331D01*
X0173119Y0106329D02*
X0172570Y0106329D01*
X0165245Y0106329D02*
X0164696Y0106329D01*
X0164696Y0105331D02*
X0165245Y0105331D01*
X0165245Y0104332D02*
X0164696Y0104332D01*
X0164696Y0103334D02*
X0165245Y0103334D01*
X0165446Y0102335D02*
X0164495Y0102335D01*
X0164696Y0107328D02*
X0165245Y0107328D01*
X0165245Y0108326D02*
X0164696Y0108326D01*
X0164696Y0109325D02*
X0165245Y0109325D01*
X0165245Y0110323D02*
X0164696Y0110323D01*
X0164696Y0111322D02*
X0165245Y0111322D01*
X0165245Y0112320D02*
X0164696Y0112320D01*
X0164439Y0113319D02*
X0165502Y0113319D01*
X0165221Y0114318D02*
X0155315Y0114318D01*
X0153115Y0114134D02*
X0151465Y0115784D01*
X0153115Y0114134D02*
X0153115Y0108084D01*
X0153160Y0107799D01*
X0126076Y0102335D02*
X0120188Y0102335D01*
X0128829Y0084362D02*
X0188104Y0084362D01*
X0188104Y0083364D02*
X0128869Y0083364D01*
X0128869Y0082365D02*
X0188104Y0082365D01*
X0188104Y0081367D02*
X0128869Y0081367D01*
X0128869Y0080368D02*
X0188104Y0080368D01*
X0188104Y0079370D02*
X0128869Y0079370D01*
X0128720Y0078371D02*
X0188104Y0078371D01*
X0171808Y0053194D02*
X0166007Y0053194D01*
X0165245Y0052432D01*
X0165245Y0041906D01*
X0166007Y0041145D01*
X0171808Y0041145D01*
X0172570Y0041906D01*
X0172570Y0052432D01*
X0171808Y0053194D01*
X0172570Y0052410D02*
X0173119Y0052410D01*
X0173119Y0051411D02*
X0172570Y0051411D01*
X0172570Y0050413D02*
X0173119Y0050413D01*
X0173119Y0049414D02*
X0172570Y0049414D01*
X0172570Y0048416D02*
X0173119Y0048416D01*
X0173119Y0047417D02*
X0172570Y0047417D01*
X0172570Y0046419D02*
X0173119Y0046419D01*
X0173119Y0045420D02*
X0172570Y0045420D01*
X0172570Y0044422D02*
X0173119Y0044422D01*
X0173119Y0043423D02*
X0172570Y0043423D01*
X0172570Y0042425D02*
X0173119Y0042425D01*
X0173600Y0041426D02*
X0172090Y0041426D01*
X0175115Y0040428D02*
X0155865Y0040428D01*
X0155865Y0039429D02*
X0175115Y0039429D01*
X0175115Y0038431D02*
X0156415Y0038431D01*
X0156415Y0037432D02*
X0176106Y0037432D01*
X0177104Y0036434D02*
X0157887Y0036434D01*
X0158885Y0035435D02*
X0178103Y0035435D01*
X0178962Y0034437D02*
X0159368Y0034437D01*
X0159765Y0033438D02*
X0178565Y0033438D01*
X0178565Y0032440D02*
X0159765Y0032440D01*
X0159745Y0031441D02*
X0178585Y0031441D01*
X0178999Y0030443D02*
X0159331Y0030443D01*
X0158796Y0029444D02*
X0179534Y0029444D01*
X0180533Y0028446D02*
X0157797Y0028446D01*
X0150665Y0028446D02*
X0146653Y0028446D01*
X0147584Y0029444D02*
X0150734Y0029444D01*
X0150199Y0030443D02*
X0148161Y0030443D01*
X0148465Y0031441D02*
X0149785Y0031441D01*
X0149815Y0027447D02*
X0144690Y0027447D01*
X0143865Y0027447D02*
X0142865Y0027447D01*
X0142040Y0027447D02*
X0123317Y0027447D01*
X0123318Y0028446D02*
X0140077Y0028446D01*
X0142865Y0028446D02*
X0143865Y0028446D01*
X0143865Y0029444D02*
X0142865Y0029444D01*
X0142865Y0030443D02*
X0143865Y0030443D01*
X0143865Y0031441D02*
X0142865Y0031441D01*
X0142865Y0032440D02*
X0132282Y0032440D01*
X0127815Y0031084D02*
X0119565Y0031084D01*
X0119065Y0030831D01*
X0123318Y0033438D02*
X0127058Y0033438D01*
X0128056Y0034437D02*
X0122809Y0034437D01*
X0123518Y0026449D02*
X0142333Y0026449D01*
X0141860Y0025450D02*
X0123518Y0025450D01*
X0119565Y0022454D02*
X0118565Y0022454D01*
X0118565Y0021456D02*
X0119565Y0021456D01*
X0119565Y0020457D02*
X0118565Y0020457D01*
X0115112Y0020457D02*
X0114564Y0020457D01*
X0114612Y0021456D02*
X0114265Y0021456D01*
X0114265Y0022454D02*
X0114612Y0022454D01*
X0114612Y0023453D02*
X0114024Y0023453D01*
X0108365Y0020457D02*
X0107735Y0020457D01*
X0108365Y0019459D02*
X0064114Y0019459D01*
X0064114Y0018539D02*
X0064114Y0021386D01*
X0059565Y0021386D01*
X0059565Y0022386D01*
X0058565Y0022386D01*
X0058565Y0026535D01*
X0055318Y0026535D01*
X0054937Y0026433D01*
X0054595Y0026236D01*
X0054316Y0025956D01*
X0054118Y0025614D01*
X0054016Y0025233D01*
X0054016Y0022386D01*
X0058565Y0022386D01*
X0058565Y0021386D01*
X0054016Y0021386D01*
X0054016Y0018539D01*
X0054118Y0018157D01*
X0054316Y0017815D01*
X0054595Y0017536D01*
X0054937Y0017338D01*
X0055318Y0017236D01*
X0058565Y0017236D01*
X0058565Y0021386D01*
X0059565Y0021386D01*
X0059565Y0017236D01*
X0062812Y0017236D01*
X0063193Y0017338D01*
X0063535Y0017536D01*
X0063815Y0017815D01*
X0064012Y0018157D01*
X0064114Y0018539D01*
X0064093Y0018460D02*
X0108567Y0018460D01*
X0109215Y0017462D02*
X0063407Y0017462D01*
X0064114Y0020457D02*
X0100395Y0020457D01*
X0096971Y0021456D02*
X0059565Y0021456D01*
X0059565Y0022386D02*
X0064114Y0022386D01*
X0064114Y0025233D01*
X0064012Y0025614D01*
X0063815Y0025956D01*
X0063535Y0026236D01*
X0063193Y0026433D01*
X0062812Y0026535D01*
X0059565Y0026535D01*
X0059565Y0022386D01*
X0059565Y0022454D02*
X0058565Y0022454D01*
X0058565Y0021456D02*
X0004065Y0021456D01*
X0004065Y0022454D02*
X0054016Y0022454D01*
X0054016Y0023453D02*
X0004065Y0023453D01*
X0004065Y0024452D02*
X0054016Y0024452D01*
X0054074Y0025450D02*
X0004065Y0025450D01*
X0004065Y0026449D02*
X0054994Y0026449D01*
X0051825Y0028446D02*
X0070063Y0028446D01*
X0070099Y0028397D02*
X0070677Y0027818D01*
X0071340Y0027337D01*
X0072069Y0026965D01*
X0072847Y0026712D01*
X0073565Y0026599D01*
X0073565Y0031284D01*
X0068879Y0031284D01*
X0068993Y0030567D01*
X0069246Y0029788D01*
X0069618Y0029059D01*
X0070099Y0028397D01*
X0069421Y0029444D02*
X0063914Y0029444D01*
X0063914Y0030443D02*
X0069033Y0030443D01*
X0068904Y0032440D02*
X0063914Y0032440D01*
X0063914Y0033438D02*
X0069135Y0033438D01*
X0069580Y0034437D02*
X0063914Y0034437D01*
X0063914Y0035435D02*
X0070362Y0035435D01*
X0073565Y0031441D02*
X0063914Y0031441D01*
X0063136Y0026449D02*
X0091979Y0026449D01*
X0090980Y0027447D02*
X0076942Y0027447D01*
X0078067Y0028446D02*
X0089982Y0028446D01*
X0088983Y0029444D02*
X0078709Y0029444D01*
X0079097Y0030443D02*
X0087985Y0030443D01*
X0092977Y0025450D02*
X0064056Y0025450D01*
X0064114Y0024452D02*
X0093976Y0024452D01*
X0094974Y0023453D02*
X0064114Y0023453D01*
X0064114Y0022454D02*
X0095973Y0022454D01*
X0110214Y0016463D02*
X0004065Y0016463D01*
X0004065Y0015465D02*
X0111212Y0015465D01*
X0112211Y0014466D02*
X0004065Y0014466D01*
X0004065Y0017462D02*
X0054723Y0017462D01*
X0054037Y0018460D02*
X0004065Y0018460D01*
X0004065Y0019459D02*
X0054016Y0019459D01*
X0054016Y0020457D02*
X0004065Y0020457D01*
X0004065Y0027447D02*
X0007040Y0027447D01*
X0007865Y0027447D02*
X0008865Y0027447D01*
X0009690Y0027447D02*
X0071188Y0027447D01*
X0073565Y0027447D02*
X0074565Y0027447D01*
X0074565Y0028446D02*
X0073565Y0028446D01*
X0073565Y0029444D02*
X0074565Y0029444D01*
X0074565Y0030443D02*
X0073565Y0030443D01*
X0059565Y0026449D02*
X0058565Y0026449D01*
X0058565Y0025450D02*
X0059565Y0025450D01*
X0059565Y0024452D02*
X0058565Y0024452D01*
X0058565Y0023453D02*
X0059565Y0023453D01*
X0059565Y0020457D02*
X0058565Y0020457D01*
X0058565Y0019459D02*
X0059565Y0019459D01*
X0059565Y0018460D02*
X0058565Y0018460D01*
X0058565Y0017462D02*
X0059565Y0017462D01*
X0042446Y0028446D02*
X0035684Y0028446D01*
X0035837Y0028599D02*
X0035837Y0036369D01*
X0035076Y0037131D01*
X0026912Y0037131D01*
X0026216Y0036434D01*
X0022886Y0036434D01*
X0022597Y0036723D01*
X0020760Y0037484D01*
X0018770Y0037484D01*
X0016933Y0036723D01*
X0015526Y0035317D01*
X0014765Y0033479D01*
X0014765Y0031490D01*
X0015526Y0029652D01*
X0016933Y0028245D01*
X0018770Y0027484D01*
X0020760Y0027484D01*
X0022597Y0028245D01*
X0023386Y0029034D01*
X0026151Y0029034D01*
X0026151Y0028599D01*
X0026912Y0027838D01*
X0035076Y0027838D01*
X0035837Y0028599D01*
X0035837Y0029444D02*
X0042293Y0029444D01*
X0042293Y0030443D02*
X0035837Y0030443D01*
X0035837Y0031441D02*
X0042293Y0031441D01*
X0042293Y0032440D02*
X0035837Y0032440D01*
X0035837Y0033438D02*
X0042293Y0033438D01*
X0042293Y0034437D02*
X0035837Y0034437D01*
X0035837Y0035435D02*
X0042293Y0035435D01*
X0042357Y0036434D02*
X0035773Y0036434D01*
X0043265Y0037432D02*
X0020885Y0037432D01*
X0018645Y0037432D02*
X0009965Y0037432D01*
X0008865Y0037432D02*
X0007865Y0037432D01*
X0007865Y0036434D02*
X0008865Y0036434D01*
X0008865Y0035435D02*
X0007865Y0035435D01*
X0007865Y0034437D02*
X0008865Y0034437D01*
X0008865Y0033438D02*
X0007865Y0033438D01*
X0008865Y0032440D02*
X0014765Y0032440D01*
X0014765Y0033438D02*
X0013479Y0033438D01*
X0013198Y0034437D02*
X0015162Y0034437D01*
X0015645Y0035435D02*
X0012649Y0035435D01*
X0011770Y0036434D02*
X0016643Y0036434D01*
X0017000Y0040965D02*
X0013502Y0040965D01*
X0013502Y0049465D01*
X0013502Y0050465D01*
X0012502Y0050465D01*
X0012502Y0058965D01*
X0009005Y0058965D01*
X0008623Y0058862D01*
X0008281Y0058665D01*
X0008002Y0058386D01*
X0007804Y0058044D01*
X0007702Y0057662D01*
X0007702Y0050465D01*
X0012502Y0050465D01*
X0012502Y0049465D01*
X0007702Y0049465D01*
X0007702Y0042267D01*
X0007804Y0041886D01*
X0008002Y0041544D01*
X0008281Y0041264D01*
X0008623Y0041067D01*
X0009005Y0040965D01*
X0012502Y0040965D01*
X0012502Y0049465D01*
X0013502Y0049465D01*
X0018302Y0049465D01*
X0018302Y0042267D01*
X0018200Y0041886D01*
X0018002Y0041544D01*
X0017723Y0041264D01*
X0017381Y0041067D01*
X0017000Y0040965D01*
X0017885Y0041426D02*
X0043265Y0041426D01*
X0043265Y0040428D02*
X0004065Y0040428D01*
X0004065Y0041426D02*
X0008119Y0041426D01*
X0007702Y0042425D02*
X0004065Y0042425D01*
X0004065Y0043423D02*
X0007702Y0043423D01*
X0007702Y0044422D02*
X0004065Y0044422D01*
X0004065Y0045420D02*
X0007702Y0045420D01*
X0007702Y0046419D02*
X0004065Y0046419D01*
X0004065Y0047417D02*
X0007702Y0047417D01*
X0007702Y0048416D02*
X0004065Y0048416D01*
X0004065Y0049414D02*
X0007702Y0049414D01*
X0007702Y0051411D02*
X0004065Y0051411D01*
X0004065Y0050413D02*
X0012502Y0050413D01*
X0012502Y0051411D02*
X0013502Y0051411D01*
X0013502Y0050465D02*
X0013502Y0058965D01*
X0017000Y0058965D01*
X0017381Y0058862D01*
X0017723Y0058665D01*
X0018002Y0058386D01*
X0018200Y0058044D01*
X0018302Y0057662D01*
X0018302Y0050465D01*
X0013502Y0050465D01*
X0013502Y0050413D02*
X0043335Y0050413D01*
X0043335Y0051411D02*
X0018302Y0051411D01*
X0018302Y0052410D02*
X0043335Y0052410D01*
X0043335Y0053408D02*
X0018302Y0053408D01*
X0018302Y0054407D02*
X0043335Y0054407D01*
X0043335Y0055405D02*
X0018302Y0055405D01*
X0018302Y0056404D02*
X0043335Y0056404D01*
X0043335Y0057402D02*
X0018302Y0057402D01*
X0017987Y0058401D02*
X0043733Y0058401D01*
X0052447Y0060398D02*
X0004065Y0060398D01*
X0004065Y0061396D02*
X0052447Y0061396D01*
X0052632Y0059399D02*
X0004065Y0059399D01*
X0004065Y0058401D02*
X0008017Y0058401D01*
X0007702Y0057402D02*
X0004065Y0057402D01*
X0004065Y0056404D02*
X0007702Y0056404D01*
X0007702Y0055405D02*
X0004065Y0055405D01*
X0004065Y0054407D02*
X0007702Y0054407D01*
X0007702Y0053408D02*
X0004065Y0053408D01*
X0004065Y0052410D02*
X0007702Y0052410D01*
X0012502Y0052410D02*
X0013502Y0052410D01*
X0013502Y0053408D02*
X0012502Y0053408D01*
X0012502Y0054407D02*
X0013502Y0054407D01*
X0013502Y0055405D02*
X0012502Y0055405D01*
X0012502Y0056404D02*
X0013502Y0056404D01*
X0013502Y0057402D02*
X0012502Y0057402D01*
X0012502Y0058401D02*
X0013502Y0058401D01*
X0013502Y0049414D02*
X0012502Y0049414D01*
X0012502Y0048416D02*
X0013502Y0048416D01*
X0013502Y0047417D02*
X0012502Y0047417D01*
X0012502Y0046419D02*
X0013502Y0046419D01*
X0013502Y0045420D02*
X0012502Y0045420D01*
X0012502Y0044422D02*
X0013502Y0044422D01*
X0013502Y0043423D02*
X0012502Y0043423D01*
X0012502Y0042425D02*
X0013502Y0042425D01*
X0013502Y0041426D02*
X0012502Y0041426D01*
X0018302Y0042425D02*
X0043265Y0042425D01*
X0043265Y0043423D02*
X0018302Y0043423D01*
X0018302Y0044422D02*
X0043265Y0044422D01*
X0043265Y0045420D02*
X0018302Y0045420D01*
X0018302Y0046419D02*
X0043335Y0046419D01*
X0043335Y0047417D02*
X0018302Y0047417D01*
X0018302Y0048416D02*
X0043335Y0048416D01*
X0043335Y0049414D02*
X0018302Y0049414D01*
X0004065Y0039429D02*
X0043265Y0039429D01*
X0043265Y0038431D02*
X0004065Y0038431D01*
X0004065Y0037432D02*
X0006766Y0037432D01*
X0004961Y0036434D02*
X0004065Y0036434D01*
X0004065Y0035435D02*
X0004081Y0035435D01*
X0007865Y0031441D02*
X0008865Y0031441D01*
X0008865Y0030443D02*
X0007865Y0030443D01*
X0007865Y0029444D02*
X0008865Y0029444D01*
X0008865Y0028446D02*
X0007865Y0028446D01*
X0005077Y0028446D02*
X0004065Y0028446D01*
X0004065Y0029444D02*
X0004146Y0029444D01*
X0011653Y0028446D02*
X0016733Y0028446D01*
X0015734Y0029444D02*
X0012584Y0029444D01*
X0013161Y0030443D02*
X0015199Y0030443D01*
X0014785Y0031441D02*
X0013465Y0031441D01*
X0022797Y0028446D02*
X0026305Y0028446D01*
X0050665Y0037432D02*
X0054877Y0037432D01*
X0074065Y0043184D02*
X0074465Y0043184D01*
X0074465Y0044284D01*
X0079965Y0049784D01*
X0079965Y0058584D01*
X0078315Y0060234D01*
X0071965Y0064984D02*
X0071715Y0065184D01*
X0068415Y0065184D01*
X0066215Y0062984D01*
X0062915Y0062984D01*
X0062608Y0062484D01*
X0059734Y0061396D02*
X0058597Y0061396D01*
X0058597Y0060398D02*
X0059734Y0060398D01*
X0059918Y0059399D02*
X0058411Y0059399D01*
X0062400Y0071382D02*
X0063251Y0071382D01*
X0062192Y0073379D02*
X0066459Y0073379D01*
X0068415Y0074534D02*
X0067315Y0075634D01*
X0059065Y0075634D01*
X0059065Y0076028D01*
X0068415Y0074534D02*
X0071715Y0074534D01*
X0071965Y0074984D01*
X0071965Y0084984D02*
X0075565Y0084984D01*
X0076115Y0085534D01*
X0077765Y0085534D01*
X0079965Y0087734D01*
X0079965Y0092684D01*
X0076115Y0096534D01*
X0060165Y0096534D01*
X0056865Y0093234D01*
X0056865Y0088834D01*
X0056565Y0088528D01*
X0060227Y0088356D02*
X0060961Y0088356D01*
X0060403Y0089355D02*
X0060227Y0089355D01*
X0060227Y0090353D02*
X0060403Y0090353D01*
X0060403Y0091352D02*
X0059516Y0091352D01*
X0059092Y0092350D02*
X0060403Y0092350D01*
X0060611Y0093349D02*
X0060091Y0093349D01*
X0064065Y0091028D02*
X0064565Y0090484D01*
X0067865Y0090484D01*
X0068415Y0089934D01*
X0071715Y0089934D01*
X0071965Y0089984D01*
X0077265Y0090353D02*
X0077765Y0090353D01*
X0077765Y0089355D02*
X0077265Y0089355D01*
X0077265Y0088356D02*
X0077476Y0088356D01*
X0077265Y0091352D02*
X0077765Y0091352D01*
X0077188Y0092350D02*
X0076738Y0092350D01*
X0076189Y0093349D02*
X0067519Y0093349D01*
X0067200Y0087358D02*
X0060227Y0087358D01*
X0060172Y0086359D02*
X0060708Y0086359D01*
X0056852Y0084362D02*
X0056278Y0084362D01*
X0056278Y0083364D02*
X0056852Y0083364D01*
X0056852Y0082365D02*
X0056278Y0082365D01*
X0053535Y0084362D02*
X0004065Y0084362D01*
X0004065Y0083364D02*
X0052743Y0083364D01*
X0052703Y0082365D02*
X0004065Y0082365D01*
X0012502Y0094347D02*
X0013502Y0094347D01*
X0013502Y0095346D02*
X0012502Y0095346D01*
X0012502Y0096344D02*
X0013502Y0096344D01*
X0013502Y0097343D02*
X0012502Y0097343D01*
X0012502Y0098341D02*
X0013502Y0098341D01*
X0013502Y0099340D02*
X0012502Y0099340D01*
X0012502Y0100338D02*
X0013502Y0100338D01*
X0013502Y0101337D02*
X0012502Y0101337D01*
X0012502Y0102335D02*
X0013502Y0102335D01*
X0018302Y0102335D02*
X0043532Y0102335D01*
X0043532Y0101337D02*
X0018302Y0101337D01*
X0018302Y0100338D02*
X0043532Y0100338D01*
X0043532Y0099340D02*
X0018302Y0099340D01*
X0018302Y0098341D02*
X0043532Y0098341D01*
X0043532Y0097343D02*
X0018302Y0097343D01*
X0018302Y0096344D02*
X0043532Y0096344D01*
X0043532Y0095346D02*
X0018283Y0095346D01*
X0017608Y0094347D02*
X0044024Y0094347D01*
X0053240Y0094347D02*
X0054867Y0094347D01*
X0055865Y0095346D02*
X0053732Y0095346D01*
X0053732Y0096344D02*
X0056864Y0096344D01*
X0057862Y0097343D02*
X0053732Y0097343D01*
X0053732Y0098341D02*
X0058861Y0098341D01*
X0053732Y0099340D02*
X0085088Y0099340D01*
X0086086Y0098341D02*
X0077419Y0098341D01*
X0082092Y0102335D02*
X0053732Y0102335D01*
X0053732Y0101337D02*
X0083091Y0101337D01*
X0084089Y0100338D02*
X0053732Y0100338D01*
X0053732Y0103334D02*
X0054216Y0103334D01*
X0054216Y0104332D02*
X0053732Y0104332D01*
X0063914Y0103334D02*
X0081093Y0103334D01*
X0090615Y0092350D02*
X0091393Y0092350D01*
X0090865Y0091352D02*
X0090615Y0091352D01*
X0090615Y0090353D02*
X0090865Y0090353D01*
X0090865Y0089355D02*
X0090615Y0089355D01*
X0090615Y0088356D02*
X0090865Y0088356D01*
X0090615Y0087358D02*
X0091117Y0087358D01*
X0090665Y0086359D02*
X0090615Y0086359D01*
X0090615Y0085361D02*
X0090665Y0085361D01*
X0090665Y0084362D02*
X0090615Y0084362D01*
X0090615Y0083364D02*
X0090698Y0083364D01*
X0101465Y0070383D02*
X0104053Y0070383D01*
X0104452Y0069385D02*
X0101465Y0069385D01*
X0101465Y0068386D02*
X0105109Y0068386D01*
X0106270Y0067387D02*
X0100900Y0067387D01*
X0101465Y0066389D02*
X0118395Y0066389D01*
X0118395Y0065390D02*
X0101465Y0065390D01*
X0101465Y0064392D02*
X0118395Y0064392D01*
X0118395Y0063393D02*
X0104061Y0063393D01*
X0105571Y0062395D02*
X0118773Y0062395D01*
X0119092Y0061396D02*
X0106156Y0061396D01*
X0106365Y0060398D02*
X0118395Y0060398D01*
X0118395Y0059399D02*
X0106291Y0059399D01*
X0105878Y0058401D02*
X0118395Y0058401D01*
X0118395Y0057402D02*
X0104852Y0057402D01*
X0103065Y0060234D02*
X0096465Y0060234D01*
X0096165Y0059984D01*
X0096465Y0060234D02*
X0096465Y0064634D01*
X0096165Y0064984D01*
X0101465Y0063393D02*
X0102069Y0063393D01*
X0101278Y0057402D02*
X0100885Y0057402D01*
X0101465Y0056404D02*
X0118395Y0056404D01*
X0118395Y0055405D02*
X0101465Y0055405D01*
X0101465Y0054407D02*
X0118887Y0054407D01*
X0118529Y0052410D02*
X0100729Y0052410D01*
X0101465Y0053408D02*
X0123378Y0053408D01*
X0125606Y0049414D02*
X0125675Y0049414D01*
X0125675Y0048416D02*
X0120758Y0048416D01*
X0129038Y0045420D02*
X0130037Y0045420D01*
X0130037Y0044422D02*
X0129038Y0044422D01*
X0129038Y0043423D02*
X0130037Y0043423D01*
X0130037Y0042425D02*
X0129038Y0042425D01*
X0129038Y0041426D02*
X0130037Y0041426D01*
X0156342Y0041426D02*
X0157852Y0041426D01*
X0157371Y0042425D02*
X0156822Y0042425D01*
X0156822Y0043423D02*
X0157371Y0043423D01*
X0157371Y0044422D02*
X0156822Y0044422D01*
X0156822Y0045420D02*
X0157371Y0045420D01*
X0157371Y0046419D02*
X0156822Y0046419D01*
X0156822Y0047417D02*
X0157371Y0047417D01*
X0157371Y0048416D02*
X0156822Y0048416D01*
X0156822Y0049414D02*
X0157371Y0049414D01*
X0157371Y0050413D02*
X0156822Y0050413D01*
X0156822Y0051411D02*
X0157371Y0051411D01*
X0157371Y0052410D02*
X0156822Y0052410D01*
X0164696Y0052410D02*
X0165245Y0052410D01*
X0165245Y0051411D02*
X0164696Y0051411D01*
X0164696Y0050413D02*
X0165245Y0050413D01*
X0165245Y0049414D02*
X0164696Y0049414D01*
X0164696Y0048416D02*
X0165245Y0048416D01*
X0165245Y0047417D02*
X0164696Y0047417D01*
X0164696Y0046419D02*
X0165245Y0046419D01*
X0165245Y0045420D02*
X0164696Y0045420D01*
X0164696Y0044422D02*
X0165245Y0044422D01*
X0165245Y0043423D02*
X0164696Y0043423D01*
X0164696Y0042425D02*
X0165245Y0042425D01*
X0165726Y0041426D02*
X0164216Y0041426D01*
X0183065Y0008475D02*
X0184065Y0008475D01*
D23*
X0169419Y0030043D03*
X0161545Y0065476D03*
X0153671Y0085161D03*
X0141860Y0136343D03*
X0023750Y0100909D03*
X0023750Y0049728D03*
X0082805Y0018232D03*
D24*
X0059065Y0033083D02*
X0059065Y0033284D01*
X0054665Y0033284D01*
X0054115Y0032734D01*
X0049165Y0032734D01*
X0047136Y0032484D01*
X0046965Y0032734D01*
X0046965Y0044834D01*
X0048435Y0049965D01*
X0030994Y0032484D02*
X0030465Y0032734D01*
X0020015Y0032734D01*
X0019765Y0032484D01*
D25*
X0103065Y0060234D03*
X0132765Y0096534D03*
X0143765Y0099834D03*
X0151465Y0115784D03*
X0186115Y0039334D03*
D26*
X0145719Y0022484D02*
X0145415Y0022284D01*
X0133315Y0022284D01*
X0127815Y0016784D01*
X0114065Y0016784D01*
X0111315Y0019534D01*
X0111315Y0022284D01*
X0109665Y0023934D01*
X0104165Y0023934D01*
X0104065Y0024138D01*
X0103065Y0023934D01*
X0098665Y0023934D01*
X0087665Y0034934D01*
X0087665Y0093784D01*
X0091240Y0097359D01*
X0081615Y0106984D01*
X0060165Y0106984D01*
X0059065Y0106886D01*
X0059065Y0106984D01*
X0055765Y0106984D01*
X0055215Y0107534D01*
X0047515Y0107534D01*
X0048632Y0102878D01*
X0091240Y0097359D02*
X0095915Y0092684D01*
X0095915Y0091584D01*
X0096740Y0090759D01*
X0099765Y0093784D01*
X0100315Y0093784D01*
X0100865Y0094334D01*
X0103615Y0094334D01*
X0104065Y0093941D01*
X0105265Y0093784D01*
X0106365Y0092684D01*
X0108565Y0092684D01*
X0115165Y0099284D01*
X0115165Y0101484D01*
X0119565Y0105884D01*
X0128365Y0105884D01*
X0129465Y0106984D01*
X0129537Y0107799D01*
X0129465Y0108084D01*
X0129465Y0112484D01*
X0128915Y0113034D01*
X0141565Y0125684D01*
X0163015Y0125684D01*
X0164065Y0125831D01*
X0164115Y0125684D01*
X0174015Y0125684D01*
X0174065Y0125831D01*
X0096740Y0090759D02*
X0096465Y0090484D01*
X0096165Y0089984D01*
D27*
X0161034Y0064965D02*
X0161034Y0047169D01*
X0161034Y0064965D02*
X0161545Y0065476D01*
M02*
