G75*
%MOIN*%
%OFA0B0*%
%FSLAX25Y25*%
%IPPOS*%
%LPD*%
%AMOC8*
5,1,8,0,0,1.08239X$1,22.5*
%
%ADD10C,0.01000*%
D10*
X0004065Y0001500D02*
X0196978Y0001500D01*
X0197549Y0001507D01*
X0198119Y0001528D01*
X0198689Y0001562D01*
X0199258Y0001610D01*
X0199825Y0001672D01*
X0200391Y0001748D01*
X0200955Y0001837D01*
X0201516Y0001940D01*
X0202075Y0002057D01*
X0202631Y0002186D01*
X0203184Y0002330D01*
X0203733Y0002486D01*
X0204278Y0002656D01*
X0204818Y0002839D01*
X0205354Y0003035D01*
X0205886Y0003244D01*
X0206412Y0003466D01*
X0206932Y0003700D01*
X0207447Y0003947D01*
X0207956Y0004206D01*
X0208458Y0004477D01*
X0208953Y0004761D01*
X0209442Y0005056D01*
X0209923Y0005363D01*
X0210397Y0005681D01*
X0210863Y0006011D01*
X0211320Y0006352D01*
X0211770Y0006705D01*
X0212210Y0007067D01*
X0212642Y0007441D01*
X0213065Y0007824D01*
X0213478Y0008218D01*
X0213882Y0008622D01*
X0214276Y0009035D01*
X0214659Y0009458D01*
X0215033Y0009890D01*
X0215395Y0010330D01*
X0215748Y0010780D01*
X0216089Y0011237D01*
X0216419Y0011703D01*
X0216737Y0012177D01*
X0217044Y0012658D01*
X0217339Y0013147D01*
X0217623Y0013642D01*
X0217894Y0014144D01*
X0218153Y0014653D01*
X0218400Y0015168D01*
X0218634Y0015688D01*
X0218856Y0016214D01*
X0219065Y0016746D01*
X0219261Y0017282D01*
X0219444Y0017822D01*
X0219614Y0018367D01*
X0219770Y0018916D01*
X0219914Y0019469D01*
X0220043Y0020025D01*
X0220160Y0020584D01*
X0220263Y0021145D01*
X0220352Y0021709D01*
X0220428Y0022275D01*
X0220490Y0022842D01*
X0220538Y0023411D01*
X0220572Y0023981D01*
X0220593Y0024551D01*
X0220600Y0025122D01*
X0220600Y0121579D01*
X0220593Y0122150D01*
X0220572Y0122720D01*
X0220538Y0123290D01*
X0220490Y0123859D01*
X0220428Y0124426D01*
X0220352Y0124992D01*
X0220263Y0125556D01*
X0220160Y0126117D01*
X0220043Y0126676D01*
X0219914Y0127232D01*
X0219770Y0127785D01*
X0219614Y0128334D01*
X0219444Y0128879D01*
X0219261Y0129419D01*
X0219065Y0129955D01*
X0218856Y0130487D01*
X0218634Y0131013D01*
X0218400Y0131533D01*
X0218153Y0132048D01*
X0217894Y0132557D01*
X0217623Y0133059D01*
X0217339Y0133554D01*
X0217044Y0134043D01*
X0216737Y0134524D01*
X0216419Y0134998D01*
X0216089Y0135464D01*
X0215748Y0135921D01*
X0215395Y0136371D01*
X0215033Y0136811D01*
X0214659Y0137243D01*
X0214276Y0137666D01*
X0213882Y0138079D01*
X0213478Y0138483D01*
X0213065Y0138877D01*
X0212642Y0139260D01*
X0212210Y0139634D01*
X0211770Y0139996D01*
X0211320Y0140349D01*
X0210863Y0140690D01*
X0210397Y0141020D01*
X0209923Y0141338D01*
X0209442Y0141645D01*
X0208953Y0141940D01*
X0208458Y0142224D01*
X0207956Y0142495D01*
X0207447Y0142754D01*
X0206932Y0143001D01*
X0206412Y0143235D01*
X0205886Y0143457D01*
X0205354Y0143666D01*
X0204818Y0143862D01*
X0204278Y0144045D01*
X0203733Y0144215D01*
X0203184Y0144371D01*
X0202631Y0144515D01*
X0202075Y0144644D01*
X0201516Y0144761D01*
X0200955Y0144864D01*
X0200391Y0144953D01*
X0199825Y0145029D01*
X0199258Y0145091D01*
X0198689Y0145139D01*
X0198119Y0145173D01*
X0197549Y0145194D01*
X0196978Y0145201D01*
X0004065Y0145201D01*
X0004065Y0001500D01*
M02*
