G75*
%MOIN*%
%OFA0B0*%
%FSLAX25Y25*%
%IPPOS*%
%LPD*%
%AMOC8*
5,1,8,0,0,1.08239X$1,22.5*
%
%ADD10C,0.00600*%
%ADD11C,0.00400*%
D10*
X0069995Y0062907D02*
X0071063Y0061839D01*
X0073198Y0061839D01*
X0074265Y0062907D01*
X0069995Y0067177D01*
X0069995Y0062907D01*
X0074265Y0062907D02*
X0074265Y0067177D01*
X0073198Y0068245D01*
X0071063Y0068245D01*
X0069995Y0067177D01*
X0072491Y0071515D02*
X0071424Y0072583D01*
X0071424Y0077921D01*
X0074626Y0077921D01*
X0075694Y0076853D01*
X0075694Y0074718D01*
X0074626Y0073650D01*
X0071424Y0073650D01*
X0069249Y0074718D02*
X0068181Y0073650D01*
X0066046Y0073650D01*
X0064978Y0074718D01*
X0064978Y0076853D01*
X0066046Y0077921D01*
X0068181Y0077921D01*
X0069249Y0076853D01*
X0069249Y0074718D01*
X0072491Y0071515D02*
X0073559Y0071515D01*
X0081065Y0073650D02*
X0081065Y0077921D01*
X0078930Y0077921D02*
X0077863Y0077921D01*
X0078930Y0077921D02*
X0081065Y0075786D01*
X0083240Y0076853D02*
X0083240Y0074718D01*
X0084308Y0073650D01*
X0086443Y0073650D01*
X0087511Y0074718D01*
X0087511Y0076853D01*
X0086443Y0077921D01*
X0084308Y0077921D01*
X0083240Y0076853D01*
X0089673Y0073650D02*
X0091808Y0073650D01*
X0090740Y0073650D02*
X0090740Y0077921D01*
X0091808Y0077921D01*
X0090740Y0080056D02*
X0090740Y0081123D01*
X0093983Y0078988D02*
X0095051Y0080056D01*
X0097186Y0080056D01*
X0098253Y0078988D01*
X0098253Y0074718D01*
X0097186Y0073650D01*
X0095051Y0073650D01*
X0093983Y0074718D01*
X0093983Y0076853D01*
X0096118Y0076853D01*
X0094316Y0085461D02*
X0092181Y0087597D01*
X0090046Y0085461D01*
X0090046Y0091867D01*
X0087871Y0089732D02*
X0086803Y0089732D01*
X0086803Y0085461D01*
X0085736Y0085461D02*
X0087871Y0085461D01*
X0083574Y0088664D02*
X0081439Y0088664D01*
X0082506Y0090799D02*
X0081439Y0091867D01*
X0082506Y0090799D02*
X0082506Y0085461D01*
X0079277Y0085461D02*
X0077142Y0085461D01*
X0078209Y0085461D02*
X0078209Y0089732D01*
X0079277Y0089732D01*
X0078209Y0091867D02*
X0078209Y0092934D01*
X0074980Y0090799D02*
X0073912Y0091867D01*
X0071777Y0091867D01*
X0070709Y0090799D01*
X0070709Y0089732D01*
X0074980Y0085461D01*
X0070709Y0085461D01*
X0068534Y0085461D02*
X0068534Y0091867D01*
X0064264Y0085461D01*
X0064264Y0091867D01*
X0062089Y0089732D02*
X0061021Y0089732D01*
X0059954Y0088664D01*
X0058886Y0089732D01*
X0057818Y0088664D01*
X0057818Y0085461D01*
X0059954Y0085461D02*
X0059954Y0088664D01*
X0062089Y0089732D02*
X0062089Y0085461D01*
X0055643Y0086529D02*
X0055643Y0088664D01*
X0054576Y0089732D01*
X0052441Y0089732D01*
X0051373Y0088664D01*
X0051373Y0087597D01*
X0055643Y0087597D01*
X0055643Y0086529D02*
X0054576Y0085461D01*
X0052441Y0085461D01*
X0049198Y0086529D02*
X0048130Y0087597D01*
X0044927Y0087597D01*
X0044927Y0088664D02*
X0044927Y0085461D01*
X0048130Y0085461D01*
X0049198Y0086529D01*
X0045995Y0089732D02*
X0044927Y0088664D01*
X0045995Y0089732D02*
X0048130Y0089732D01*
X0042752Y0089732D02*
X0040617Y0091867D01*
X0040617Y0085461D01*
X0042752Y0085461D02*
X0038482Y0085461D01*
X0036307Y0086529D02*
X0036307Y0087597D01*
X0035239Y0088664D01*
X0033104Y0088664D01*
X0032036Y0087597D01*
X0032036Y0086529D01*
X0033104Y0085461D01*
X0035239Y0085461D01*
X0036307Y0086529D01*
X0035239Y0088664D02*
X0036307Y0089732D01*
X0036307Y0090799D01*
X0035239Y0091867D01*
X0033104Y0091867D01*
X0032036Y0090799D01*
X0032036Y0089732D01*
X0033104Y0088664D01*
X0029861Y0090799D02*
X0028794Y0091867D01*
X0026659Y0091867D01*
X0025591Y0090799D01*
X0025591Y0089732D01*
X0026659Y0088664D01*
X0025591Y0087597D01*
X0025591Y0086529D01*
X0026659Y0085461D01*
X0028794Y0085461D01*
X0029861Y0086529D01*
X0027726Y0088664D02*
X0026659Y0088664D01*
X0013394Y0081123D02*
X0013394Y0080056D01*
X0013394Y0077921D02*
X0013394Y0073650D01*
X0012327Y0073650D02*
X0014462Y0073650D01*
X0016637Y0074718D02*
X0017705Y0075786D01*
X0019840Y0075786D01*
X0020907Y0076853D01*
X0019840Y0077921D01*
X0016637Y0077921D01*
X0014462Y0077921D02*
X0013394Y0077921D01*
X0010165Y0076853D02*
X0009097Y0075786D01*
X0006962Y0075786D01*
X0005894Y0074718D01*
X0006962Y0073650D01*
X0010165Y0073650D01*
X0010165Y0076853D02*
X0009097Y0077921D01*
X0005894Y0077921D01*
X0016637Y0074718D02*
X0017705Y0073650D01*
X0020907Y0073650D01*
X0023069Y0073650D02*
X0024137Y0074718D01*
X0024137Y0078988D01*
X0025204Y0077921D02*
X0023069Y0077921D01*
X0027379Y0076853D02*
X0027379Y0075786D01*
X0031650Y0075786D01*
X0031650Y0076853D02*
X0031650Y0074718D01*
X0030582Y0073650D01*
X0028447Y0073650D01*
X0027379Y0076853D02*
X0028447Y0077921D01*
X0030582Y0077921D01*
X0031650Y0076853D01*
X0033818Y0077921D02*
X0034886Y0077921D01*
X0037021Y0075786D01*
X0037021Y0077921D02*
X0037021Y0073650D01*
X0039196Y0074718D02*
X0039196Y0076853D01*
X0040264Y0077921D01*
X0042399Y0077921D01*
X0043467Y0076853D01*
X0043467Y0074718D01*
X0042399Y0073650D01*
X0040264Y0073650D01*
X0039196Y0074718D01*
X0045642Y0073650D02*
X0048844Y0076853D01*
X0049912Y0075786D02*
X0045642Y0080056D01*
X0049912Y0080056D02*
X0049912Y0073650D01*
X0058533Y0074718D02*
X0059600Y0075786D01*
X0061735Y0075786D01*
X0062803Y0076853D01*
X0061735Y0077921D01*
X0058533Y0077921D01*
X0058533Y0074718D02*
X0059600Y0073650D01*
X0062803Y0073650D01*
X0076421Y0062907D02*
X0076421Y0061839D01*
X0077488Y0061839D01*
X0077488Y0062907D01*
X0076421Y0062907D01*
X0079663Y0061839D02*
X0083934Y0061839D01*
X0081799Y0061839D02*
X0081799Y0068245D01*
X0083934Y0066110D01*
X0086109Y0066110D02*
X0088244Y0061839D01*
X0090379Y0066110D01*
X0094316Y0085461D02*
X0094316Y0091867D01*
X0086803Y0091867D02*
X0086803Y0092934D01*
D11*
X0004769Y0018432D02*
X0004001Y0019200D01*
X0004001Y0022269D01*
X0004769Y0023036D01*
X0007071Y0023036D01*
X0007071Y0018432D01*
X0004769Y0018432D01*
X0008605Y0018432D02*
X0008605Y0023036D01*
X0011675Y0023036D02*
X0008605Y0018432D01*
X0011675Y0018432D02*
X0011675Y0023036D01*
X0013209Y0022269D02*
X0013977Y0023036D01*
X0015511Y0023036D01*
X0016279Y0022269D01*
X0016279Y0019200D01*
X0015511Y0018432D01*
X0013977Y0018432D01*
X0013209Y0019200D01*
X0013209Y0020734D01*
X0014744Y0020734D01*
X0027021Y0019967D02*
X0028556Y0018432D01*
X0030090Y0019967D01*
X0030090Y0023036D01*
X0031625Y0022269D02*
X0031625Y0021502D01*
X0034694Y0018432D01*
X0031625Y0018432D01*
X0036229Y0018432D02*
X0039298Y0018432D01*
X0037763Y0018432D02*
X0037763Y0023036D01*
X0039298Y0021502D01*
X0034694Y0022269D02*
X0033927Y0023036D01*
X0032392Y0023036D01*
X0031625Y0022269D01*
X0027021Y0023036D02*
X0027021Y0019967D01*
X0040768Y0028608D02*
X0043838Y0028608D01*
X0049976Y0028608D02*
X0053045Y0028608D01*
X0053045Y0029376D02*
X0051511Y0030910D01*
X0049976Y0029376D01*
X0049976Y0026306D01*
X0053045Y0026306D02*
X0053045Y0029376D01*
X0054580Y0030910D02*
X0057649Y0030910D01*
X0057649Y0026306D01*
X0054580Y0026306D01*
X0056115Y0028608D02*
X0057649Y0028608D01*
X0059184Y0030910D02*
X0059184Y0026306D01*
X0062253Y0026306D02*
X0062253Y0030910D01*
X0060719Y0029376D01*
X0059184Y0030910D01*
X0063788Y0030910D02*
X0063788Y0026306D01*
X0066857Y0030910D01*
X0066857Y0026306D01*
X0066857Y0041306D02*
X0066857Y0045910D01*
X0063788Y0041306D01*
X0063788Y0045910D01*
X0062253Y0045910D02*
X0060719Y0044376D01*
X0059184Y0045910D01*
X0059184Y0041306D01*
X0057649Y0041306D02*
X0054580Y0041306D01*
X0053045Y0041306D02*
X0053045Y0044376D01*
X0051511Y0045910D01*
X0049976Y0044376D01*
X0049976Y0041306D01*
X0049976Y0043608D02*
X0053045Y0043608D01*
X0054580Y0045910D02*
X0057649Y0045910D01*
X0057649Y0041306D01*
X0057649Y0043608D02*
X0056115Y0043608D01*
X0062253Y0041306D02*
X0062253Y0045910D01*
X0043838Y0043608D02*
X0040768Y0043608D01*
X0042303Y0045143D02*
X0042303Y0042074D01*
X0115571Y0067978D02*
X0118641Y0067978D01*
X0124779Y0067978D02*
X0127849Y0067978D01*
X0127849Y0068746D02*
X0126314Y0070280D01*
X0124779Y0068746D01*
X0124779Y0065676D01*
X0127849Y0065676D02*
X0127849Y0068746D01*
X0129383Y0070280D02*
X0132452Y0070280D01*
X0132452Y0065676D01*
X0129383Y0065676D01*
X0130918Y0067978D02*
X0132452Y0067978D01*
X0133987Y0070280D02*
X0133987Y0065676D01*
X0137056Y0065676D02*
X0137056Y0070280D01*
X0135522Y0068746D01*
X0133987Y0070280D01*
X0138591Y0070280D02*
X0138591Y0065676D01*
X0141660Y0070280D01*
X0141660Y0065676D01*
X0141660Y0080676D02*
X0141660Y0085280D01*
X0138591Y0080676D01*
X0138591Y0085280D01*
X0137056Y0085280D02*
X0135522Y0083746D01*
X0133987Y0085280D01*
X0133987Y0080676D01*
X0132452Y0080676D02*
X0129383Y0080676D01*
X0127849Y0080676D02*
X0127849Y0083746D01*
X0126314Y0085280D01*
X0124779Y0083746D01*
X0124779Y0080676D01*
X0124779Y0082978D02*
X0127849Y0082978D01*
X0130918Y0082978D02*
X0132452Y0082978D01*
X0132452Y0085280D02*
X0132452Y0080676D01*
X0137056Y0080676D02*
X0137056Y0085280D01*
X0132452Y0085280D02*
X0129383Y0085280D01*
X0118641Y0082978D02*
X0115571Y0082978D01*
X0117106Y0084513D02*
X0117106Y0081444D01*
X0132754Y0046658D02*
X0131986Y0045891D01*
X0135056Y0042822D01*
X0134288Y0042054D01*
X0132754Y0042054D01*
X0131986Y0042822D01*
X0131986Y0045891D01*
X0132754Y0046658D02*
X0134288Y0046658D01*
X0135056Y0045891D01*
X0135056Y0042822D01*
X0138125Y0042054D02*
X0138125Y0046658D01*
X0139660Y0046658D02*
X0136590Y0046658D01*
X0141194Y0045891D02*
X0141194Y0042822D01*
X0141962Y0042054D01*
X0143496Y0042054D01*
X0144264Y0042822D01*
X0144264Y0045891D01*
X0143496Y0046658D01*
X0141962Y0046658D01*
X0141194Y0045891D01*
X0145798Y0045891D02*
X0145798Y0042822D01*
X0146565Y0042054D01*
X0148100Y0042054D01*
X0148867Y0042822D01*
X0148867Y0045891D01*
X0148100Y0046658D01*
X0146565Y0046658D01*
X0145798Y0045891D01*
X0150402Y0045891D02*
X0150402Y0045124D01*
X0151169Y0044356D01*
X0153471Y0044356D01*
X0151169Y0044356D02*
X0150402Y0043589D01*
X0150402Y0042822D01*
X0151169Y0042054D01*
X0153471Y0042054D01*
X0153471Y0046658D01*
X0151169Y0046658D01*
X0150402Y0045891D01*
X0164816Y0041954D02*
X0164816Y0038885D01*
X0165584Y0038117D01*
X0167886Y0038117D01*
X0167886Y0042721D01*
X0165584Y0042721D01*
X0164816Y0041954D01*
X0169420Y0042721D02*
X0169420Y0038117D01*
X0172489Y0042721D01*
X0172489Y0038117D01*
X0174024Y0038885D02*
X0174024Y0040419D01*
X0175559Y0040419D01*
X0177093Y0038885D02*
X0176326Y0038117D01*
X0174791Y0038117D01*
X0174024Y0038885D01*
X0177093Y0038885D02*
X0177093Y0041954D01*
X0176326Y0042721D01*
X0174791Y0042721D01*
X0174024Y0041954D01*
X0172489Y0045617D02*
X0169420Y0050221D01*
X0172489Y0050221D02*
X0169420Y0045617D01*
X0175559Y0045617D02*
X0175559Y0050221D01*
X0177093Y0050221D02*
X0174024Y0050221D01*
X0174024Y0053117D02*
X0175559Y0054652D01*
X0174791Y0054652D02*
X0177093Y0054652D01*
X0177093Y0053117D02*
X0177093Y0057721D01*
X0174791Y0057721D01*
X0174024Y0056954D01*
X0174024Y0055419D01*
X0174791Y0054652D01*
X0172489Y0053117D02*
X0169420Y0057721D01*
X0172489Y0057721D02*
X0169420Y0053117D01*
M02*
