%
M48
M72
T01C0.0236
T02C0.0240
T03C0.0320
T04C0.0400
%
T01
X2375Y4973
X8281Y1823
X16155Y6548
X15367Y8516
X14186Y13634
X2375Y10091
X16942Y3004
T02
X18612Y3933
X10307Y6023
X13277Y9653
X14377Y9983
X15147Y11578
T03
X11907Y11748
X11907Y12748
X9907Y12748
X9907Y11748
X7907Y11748
X7907Y12748
X15907Y1248
X16907Y1248
T04
X837Y3248
X1977Y3248
X7407Y3178
X7407Y4318
X10907Y7178
X10907Y8318
X4049Y11957
X4049Y13737
X1489Y13737
X1489Y11957
X14337Y3248
X15477Y3248
X18357Y3248
X18457Y2248
X18357Y1248
M30
