G75*
%MOIN*%
%OFA0B0*%
%FSLAX25Y25*%
%IPPOS*%
%LPD*%
%AMOC8*
5,1,8,0,0,1.08239X$1,22.5*
%
%ADD10R,0.04724X0.09449*%
%ADD11R,0.07874X0.04724*%
%ADD12R,0.07600X0.15000*%
%ADD13R,0.07087X0.06693*%
%ADD14R,0.07098X0.06299*%
%ADD15R,0.05906X0.05118*%
%ADD16R,0.05118X0.05906*%
%ADD17R,0.08000X0.02600*%
%ADD18R,0.04724X0.03150*%
%ADD19R,0.03150X0.04724*%
D10*
X0129537Y0047169D03*
X0137412Y0047169D03*
X0145286Y0047169D03*
X0153160Y0047169D03*
X0161034Y0047169D03*
X0168908Y0047169D03*
X0176782Y0047169D03*
X0184656Y0047169D03*
X0184656Y0107799D03*
X0176782Y0107799D03*
X0168908Y0107799D03*
X0161034Y0107799D03*
X0153160Y0107799D03*
X0145286Y0107799D03*
X0137412Y0107799D03*
X0129537Y0107799D03*
D11*
X0123632Y0097169D03*
X0123632Y0089295D03*
X0123632Y0081421D03*
X0123632Y0073547D03*
X0123632Y0065673D03*
X0123632Y0057799D03*
D12*
X0048435Y0049965D03*
X0013002Y0049965D03*
X0013002Y0103114D03*
X0048632Y0102878D03*
D13*
X0030994Y0032484D03*
X0047136Y0032484D03*
D14*
X0059065Y0033083D03*
X0059065Y0021886D03*
X0059065Y0106886D03*
X0059065Y0118083D03*
D15*
X0164065Y0119138D03*
X0164065Y0125831D03*
X0174065Y0125831D03*
X0174065Y0119138D03*
X0184065Y0118744D03*
X0184065Y0126224D03*
X0119065Y0030831D03*
X0119065Y0024138D03*
X0104065Y0024138D03*
X0104065Y0030831D03*
D16*
X0135719Y0012484D03*
X0142412Y0012484D03*
X0145719Y0022484D03*
X0152412Y0022484D03*
X0112412Y0137484D03*
X0105719Y0137484D03*
X0092412Y0137484D03*
X0085719Y0137484D03*
X0072412Y0137484D03*
X0065719Y0137484D03*
D17*
X0071965Y0089984D03*
X0071965Y0084984D03*
X0071965Y0079984D03*
X0071965Y0074984D03*
X0071965Y0069984D03*
X0071965Y0064984D03*
X0071965Y0059984D03*
X0071965Y0054984D03*
X0096165Y0054984D03*
X0096165Y0059984D03*
X0096165Y0064984D03*
X0096165Y0069984D03*
X0096165Y0074984D03*
X0096165Y0079984D03*
X0096165Y0084984D03*
X0096165Y0089984D03*
D18*
X0104065Y0093941D03*
X0104065Y0101028D03*
X0064065Y0091028D03*
X0056565Y0088528D03*
X0064065Y0083941D03*
X0056565Y0081441D03*
X0059065Y0076028D03*
X0059065Y0068941D03*
D19*
X0055522Y0062484D03*
X0062608Y0062484D03*
M02*
